G75*
%MOIN*%
%OFA0B0*%
%FSLAX25Y25*%
%IPPOS*%
%LPD*%
%AMOC8*
5,1,8,0,0,1.08239X$1,22.5*
%
%ADD10C,0.00000*%
D10*
X0009674Y0004220D02*
X0320698Y0004220D01*
X0320888Y0004222D01*
X0321078Y0004229D01*
X0321268Y0004241D01*
X0321458Y0004257D01*
X0321647Y0004277D01*
X0321836Y0004303D01*
X0322024Y0004332D01*
X0322211Y0004367D01*
X0322397Y0004406D01*
X0322582Y0004449D01*
X0322767Y0004497D01*
X0322950Y0004549D01*
X0323131Y0004605D01*
X0323311Y0004666D01*
X0323490Y0004732D01*
X0323667Y0004801D01*
X0323843Y0004875D01*
X0324016Y0004953D01*
X0324188Y0005036D01*
X0324357Y0005122D01*
X0324525Y0005212D01*
X0324690Y0005307D01*
X0324853Y0005405D01*
X0325013Y0005508D01*
X0325171Y0005614D01*
X0325326Y0005724D01*
X0325479Y0005837D01*
X0325629Y0005955D01*
X0325775Y0006076D01*
X0325919Y0006200D01*
X0326060Y0006328D01*
X0326198Y0006459D01*
X0326333Y0006594D01*
X0326464Y0006732D01*
X0326592Y0006873D01*
X0326716Y0007017D01*
X0326837Y0007163D01*
X0326955Y0007313D01*
X0327068Y0007466D01*
X0327178Y0007621D01*
X0327284Y0007779D01*
X0327387Y0007939D01*
X0327485Y0008102D01*
X0327580Y0008267D01*
X0327670Y0008435D01*
X0327756Y0008604D01*
X0327839Y0008776D01*
X0327917Y0008949D01*
X0327991Y0009125D01*
X0328060Y0009302D01*
X0328126Y0009481D01*
X0328187Y0009661D01*
X0328243Y0009842D01*
X0328295Y0010025D01*
X0328343Y0010210D01*
X0328386Y0010395D01*
X0328425Y0010581D01*
X0328460Y0010768D01*
X0328489Y0010956D01*
X0328515Y0011145D01*
X0328535Y0011334D01*
X0328551Y0011524D01*
X0328563Y0011714D01*
X0328570Y0011904D01*
X0328572Y0012094D01*
X0328572Y0122331D01*
X0328570Y0122521D01*
X0328563Y0122711D01*
X0328551Y0122901D01*
X0328535Y0123091D01*
X0328515Y0123280D01*
X0328489Y0123469D01*
X0328460Y0123657D01*
X0328425Y0123844D01*
X0328386Y0124030D01*
X0328343Y0124215D01*
X0328295Y0124400D01*
X0328243Y0124583D01*
X0328187Y0124764D01*
X0328126Y0124944D01*
X0328060Y0125123D01*
X0327991Y0125300D01*
X0327917Y0125476D01*
X0327839Y0125649D01*
X0327756Y0125821D01*
X0327670Y0125990D01*
X0327580Y0126158D01*
X0327485Y0126323D01*
X0327387Y0126486D01*
X0327284Y0126646D01*
X0327178Y0126804D01*
X0327068Y0126959D01*
X0326955Y0127112D01*
X0326837Y0127262D01*
X0326716Y0127408D01*
X0326592Y0127552D01*
X0326464Y0127693D01*
X0326333Y0127831D01*
X0326198Y0127966D01*
X0326060Y0128097D01*
X0325919Y0128225D01*
X0325775Y0128349D01*
X0325629Y0128470D01*
X0325479Y0128588D01*
X0325326Y0128701D01*
X0325171Y0128811D01*
X0325013Y0128917D01*
X0324853Y0129020D01*
X0324690Y0129118D01*
X0324525Y0129213D01*
X0324357Y0129303D01*
X0324188Y0129389D01*
X0324016Y0129472D01*
X0323843Y0129550D01*
X0323667Y0129624D01*
X0323490Y0129693D01*
X0323311Y0129759D01*
X0323131Y0129820D01*
X0322950Y0129876D01*
X0322767Y0129928D01*
X0322582Y0129976D01*
X0322397Y0130019D01*
X0322211Y0130058D01*
X0322024Y0130093D01*
X0321836Y0130122D01*
X0321647Y0130148D01*
X0321458Y0130168D01*
X0321268Y0130184D01*
X0321078Y0130196D01*
X0320888Y0130203D01*
X0320698Y0130205D01*
X0009674Y0130205D01*
X0009484Y0130203D01*
X0009294Y0130196D01*
X0009104Y0130184D01*
X0008914Y0130168D01*
X0008725Y0130148D01*
X0008536Y0130122D01*
X0008348Y0130093D01*
X0008161Y0130058D01*
X0007975Y0130019D01*
X0007790Y0129976D01*
X0007605Y0129928D01*
X0007422Y0129876D01*
X0007241Y0129820D01*
X0007061Y0129759D01*
X0006882Y0129693D01*
X0006705Y0129624D01*
X0006529Y0129550D01*
X0006356Y0129472D01*
X0006184Y0129389D01*
X0006015Y0129303D01*
X0005847Y0129213D01*
X0005682Y0129118D01*
X0005519Y0129020D01*
X0005359Y0128917D01*
X0005201Y0128811D01*
X0005046Y0128701D01*
X0004893Y0128588D01*
X0004743Y0128470D01*
X0004597Y0128349D01*
X0004453Y0128225D01*
X0004312Y0128097D01*
X0004174Y0127966D01*
X0004039Y0127831D01*
X0003908Y0127693D01*
X0003780Y0127552D01*
X0003656Y0127408D01*
X0003535Y0127262D01*
X0003417Y0127112D01*
X0003304Y0126959D01*
X0003194Y0126804D01*
X0003088Y0126646D01*
X0002985Y0126486D01*
X0002887Y0126323D01*
X0002792Y0126158D01*
X0002702Y0125990D01*
X0002616Y0125821D01*
X0002533Y0125649D01*
X0002455Y0125476D01*
X0002381Y0125300D01*
X0002312Y0125123D01*
X0002246Y0124944D01*
X0002185Y0124764D01*
X0002129Y0124583D01*
X0002077Y0124400D01*
X0002029Y0124215D01*
X0001986Y0124030D01*
X0001947Y0123844D01*
X0001912Y0123657D01*
X0001883Y0123469D01*
X0001857Y0123280D01*
X0001837Y0123091D01*
X0001821Y0122901D01*
X0001809Y0122711D01*
X0001802Y0122521D01*
X0001800Y0122331D01*
X0001800Y0012094D01*
X0001802Y0011904D01*
X0001809Y0011714D01*
X0001821Y0011524D01*
X0001837Y0011334D01*
X0001857Y0011145D01*
X0001883Y0010956D01*
X0001912Y0010768D01*
X0001947Y0010581D01*
X0001986Y0010395D01*
X0002029Y0010210D01*
X0002077Y0010025D01*
X0002129Y0009842D01*
X0002185Y0009661D01*
X0002246Y0009481D01*
X0002312Y0009302D01*
X0002381Y0009125D01*
X0002455Y0008949D01*
X0002533Y0008776D01*
X0002616Y0008604D01*
X0002702Y0008435D01*
X0002792Y0008267D01*
X0002887Y0008102D01*
X0002985Y0007939D01*
X0003088Y0007779D01*
X0003194Y0007621D01*
X0003304Y0007466D01*
X0003417Y0007313D01*
X0003535Y0007163D01*
X0003656Y0007017D01*
X0003780Y0006873D01*
X0003908Y0006732D01*
X0004039Y0006594D01*
X0004174Y0006459D01*
X0004312Y0006328D01*
X0004453Y0006200D01*
X0004597Y0006076D01*
X0004743Y0005955D01*
X0004893Y0005837D01*
X0005046Y0005724D01*
X0005201Y0005614D01*
X0005359Y0005508D01*
X0005519Y0005405D01*
X0005682Y0005307D01*
X0005847Y0005212D01*
X0006015Y0005122D01*
X0006184Y0005036D01*
X0006356Y0004953D01*
X0006529Y0004875D01*
X0006705Y0004801D01*
X0006882Y0004732D01*
X0007061Y0004666D01*
X0007241Y0004605D01*
X0007422Y0004549D01*
X0007605Y0004497D01*
X0007790Y0004449D01*
X0007975Y0004406D01*
X0008161Y0004367D01*
X0008348Y0004332D01*
X0008536Y0004303D01*
X0008725Y0004277D01*
X0008914Y0004257D01*
X0009104Y0004241D01*
X0009294Y0004229D01*
X0009484Y0004222D01*
X0009674Y0004220D01*
X0011642Y0018000D02*
X0011644Y0018153D01*
X0011650Y0018307D01*
X0011660Y0018460D01*
X0011674Y0018612D01*
X0011692Y0018765D01*
X0011714Y0018916D01*
X0011739Y0019067D01*
X0011769Y0019218D01*
X0011803Y0019368D01*
X0011840Y0019516D01*
X0011881Y0019664D01*
X0011926Y0019810D01*
X0011975Y0019956D01*
X0012028Y0020100D01*
X0012084Y0020242D01*
X0012144Y0020383D01*
X0012208Y0020523D01*
X0012275Y0020661D01*
X0012346Y0020797D01*
X0012421Y0020931D01*
X0012498Y0021063D01*
X0012580Y0021193D01*
X0012664Y0021321D01*
X0012752Y0021447D01*
X0012843Y0021570D01*
X0012937Y0021691D01*
X0013035Y0021809D01*
X0013135Y0021925D01*
X0013239Y0022038D01*
X0013345Y0022149D01*
X0013454Y0022257D01*
X0013566Y0022362D01*
X0013680Y0022463D01*
X0013798Y0022562D01*
X0013917Y0022658D01*
X0014039Y0022751D01*
X0014164Y0022840D01*
X0014291Y0022927D01*
X0014420Y0023009D01*
X0014551Y0023089D01*
X0014684Y0023165D01*
X0014819Y0023238D01*
X0014956Y0023307D01*
X0015095Y0023372D01*
X0015235Y0023434D01*
X0015377Y0023492D01*
X0015520Y0023547D01*
X0015665Y0023598D01*
X0015811Y0023645D01*
X0015958Y0023688D01*
X0016106Y0023727D01*
X0016255Y0023763D01*
X0016405Y0023794D01*
X0016556Y0023822D01*
X0016707Y0023846D01*
X0016860Y0023866D01*
X0017012Y0023882D01*
X0017165Y0023894D01*
X0017318Y0023902D01*
X0017471Y0023906D01*
X0017625Y0023906D01*
X0017778Y0023902D01*
X0017931Y0023894D01*
X0018084Y0023882D01*
X0018236Y0023866D01*
X0018389Y0023846D01*
X0018540Y0023822D01*
X0018691Y0023794D01*
X0018841Y0023763D01*
X0018990Y0023727D01*
X0019138Y0023688D01*
X0019285Y0023645D01*
X0019431Y0023598D01*
X0019576Y0023547D01*
X0019719Y0023492D01*
X0019861Y0023434D01*
X0020001Y0023372D01*
X0020140Y0023307D01*
X0020277Y0023238D01*
X0020412Y0023165D01*
X0020545Y0023089D01*
X0020676Y0023009D01*
X0020805Y0022927D01*
X0020932Y0022840D01*
X0021057Y0022751D01*
X0021179Y0022658D01*
X0021298Y0022562D01*
X0021416Y0022463D01*
X0021530Y0022362D01*
X0021642Y0022257D01*
X0021751Y0022149D01*
X0021857Y0022038D01*
X0021961Y0021925D01*
X0022061Y0021809D01*
X0022159Y0021691D01*
X0022253Y0021570D01*
X0022344Y0021447D01*
X0022432Y0021321D01*
X0022516Y0021193D01*
X0022598Y0021063D01*
X0022675Y0020931D01*
X0022750Y0020797D01*
X0022821Y0020661D01*
X0022888Y0020523D01*
X0022952Y0020383D01*
X0023012Y0020242D01*
X0023068Y0020100D01*
X0023121Y0019956D01*
X0023170Y0019810D01*
X0023215Y0019664D01*
X0023256Y0019516D01*
X0023293Y0019368D01*
X0023327Y0019218D01*
X0023357Y0019067D01*
X0023382Y0018916D01*
X0023404Y0018765D01*
X0023422Y0018612D01*
X0023436Y0018460D01*
X0023446Y0018307D01*
X0023452Y0018153D01*
X0023454Y0018000D01*
X0023452Y0017847D01*
X0023446Y0017693D01*
X0023436Y0017540D01*
X0023422Y0017388D01*
X0023404Y0017235D01*
X0023382Y0017084D01*
X0023357Y0016933D01*
X0023327Y0016782D01*
X0023293Y0016632D01*
X0023256Y0016484D01*
X0023215Y0016336D01*
X0023170Y0016190D01*
X0023121Y0016044D01*
X0023068Y0015900D01*
X0023012Y0015758D01*
X0022952Y0015617D01*
X0022888Y0015477D01*
X0022821Y0015339D01*
X0022750Y0015203D01*
X0022675Y0015069D01*
X0022598Y0014937D01*
X0022516Y0014807D01*
X0022432Y0014679D01*
X0022344Y0014553D01*
X0022253Y0014430D01*
X0022159Y0014309D01*
X0022061Y0014191D01*
X0021961Y0014075D01*
X0021857Y0013962D01*
X0021751Y0013851D01*
X0021642Y0013743D01*
X0021530Y0013638D01*
X0021416Y0013537D01*
X0021298Y0013438D01*
X0021179Y0013342D01*
X0021057Y0013249D01*
X0020932Y0013160D01*
X0020805Y0013073D01*
X0020676Y0012991D01*
X0020545Y0012911D01*
X0020412Y0012835D01*
X0020277Y0012762D01*
X0020140Y0012693D01*
X0020001Y0012628D01*
X0019861Y0012566D01*
X0019719Y0012508D01*
X0019576Y0012453D01*
X0019431Y0012402D01*
X0019285Y0012355D01*
X0019138Y0012312D01*
X0018990Y0012273D01*
X0018841Y0012237D01*
X0018691Y0012206D01*
X0018540Y0012178D01*
X0018389Y0012154D01*
X0018236Y0012134D01*
X0018084Y0012118D01*
X0017931Y0012106D01*
X0017778Y0012098D01*
X0017625Y0012094D01*
X0017471Y0012094D01*
X0017318Y0012098D01*
X0017165Y0012106D01*
X0017012Y0012118D01*
X0016860Y0012134D01*
X0016707Y0012154D01*
X0016556Y0012178D01*
X0016405Y0012206D01*
X0016255Y0012237D01*
X0016106Y0012273D01*
X0015958Y0012312D01*
X0015811Y0012355D01*
X0015665Y0012402D01*
X0015520Y0012453D01*
X0015377Y0012508D01*
X0015235Y0012566D01*
X0015095Y0012628D01*
X0014956Y0012693D01*
X0014819Y0012762D01*
X0014684Y0012835D01*
X0014551Y0012911D01*
X0014420Y0012991D01*
X0014291Y0013073D01*
X0014164Y0013160D01*
X0014039Y0013249D01*
X0013917Y0013342D01*
X0013798Y0013438D01*
X0013680Y0013537D01*
X0013566Y0013638D01*
X0013454Y0013743D01*
X0013345Y0013851D01*
X0013239Y0013962D01*
X0013135Y0014075D01*
X0013035Y0014191D01*
X0012937Y0014309D01*
X0012843Y0014430D01*
X0012752Y0014553D01*
X0012664Y0014679D01*
X0012580Y0014807D01*
X0012498Y0014937D01*
X0012421Y0015069D01*
X0012346Y0015203D01*
X0012275Y0015339D01*
X0012208Y0015477D01*
X0012144Y0015617D01*
X0012084Y0015758D01*
X0012028Y0015900D01*
X0011975Y0016044D01*
X0011926Y0016190D01*
X0011881Y0016336D01*
X0011840Y0016484D01*
X0011803Y0016632D01*
X0011769Y0016782D01*
X0011739Y0016933D01*
X0011714Y0017084D01*
X0011692Y0017235D01*
X0011674Y0017388D01*
X0011660Y0017540D01*
X0011650Y0017693D01*
X0011644Y0017847D01*
X0011642Y0018000D01*
X0011642Y0116425D02*
X0011644Y0116578D01*
X0011650Y0116732D01*
X0011660Y0116885D01*
X0011674Y0117037D01*
X0011692Y0117190D01*
X0011714Y0117341D01*
X0011739Y0117492D01*
X0011769Y0117643D01*
X0011803Y0117793D01*
X0011840Y0117941D01*
X0011881Y0118089D01*
X0011926Y0118235D01*
X0011975Y0118381D01*
X0012028Y0118525D01*
X0012084Y0118667D01*
X0012144Y0118808D01*
X0012208Y0118948D01*
X0012275Y0119086D01*
X0012346Y0119222D01*
X0012421Y0119356D01*
X0012498Y0119488D01*
X0012580Y0119618D01*
X0012664Y0119746D01*
X0012752Y0119872D01*
X0012843Y0119995D01*
X0012937Y0120116D01*
X0013035Y0120234D01*
X0013135Y0120350D01*
X0013239Y0120463D01*
X0013345Y0120574D01*
X0013454Y0120682D01*
X0013566Y0120787D01*
X0013680Y0120888D01*
X0013798Y0120987D01*
X0013917Y0121083D01*
X0014039Y0121176D01*
X0014164Y0121265D01*
X0014291Y0121352D01*
X0014420Y0121434D01*
X0014551Y0121514D01*
X0014684Y0121590D01*
X0014819Y0121663D01*
X0014956Y0121732D01*
X0015095Y0121797D01*
X0015235Y0121859D01*
X0015377Y0121917D01*
X0015520Y0121972D01*
X0015665Y0122023D01*
X0015811Y0122070D01*
X0015958Y0122113D01*
X0016106Y0122152D01*
X0016255Y0122188D01*
X0016405Y0122219D01*
X0016556Y0122247D01*
X0016707Y0122271D01*
X0016860Y0122291D01*
X0017012Y0122307D01*
X0017165Y0122319D01*
X0017318Y0122327D01*
X0017471Y0122331D01*
X0017625Y0122331D01*
X0017778Y0122327D01*
X0017931Y0122319D01*
X0018084Y0122307D01*
X0018236Y0122291D01*
X0018389Y0122271D01*
X0018540Y0122247D01*
X0018691Y0122219D01*
X0018841Y0122188D01*
X0018990Y0122152D01*
X0019138Y0122113D01*
X0019285Y0122070D01*
X0019431Y0122023D01*
X0019576Y0121972D01*
X0019719Y0121917D01*
X0019861Y0121859D01*
X0020001Y0121797D01*
X0020140Y0121732D01*
X0020277Y0121663D01*
X0020412Y0121590D01*
X0020545Y0121514D01*
X0020676Y0121434D01*
X0020805Y0121352D01*
X0020932Y0121265D01*
X0021057Y0121176D01*
X0021179Y0121083D01*
X0021298Y0120987D01*
X0021416Y0120888D01*
X0021530Y0120787D01*
X0021642Y0120682D01*
X0021751Y0120574D01*
X0021857Y0120463D01*
X0021961Y0120350D01*
X0022061Y0120234D01*
X0022159Y0120116D01*
X0022253Y0119995D01*
X0022344Y0119872D01*
X0022432Y0119746D01*
X0022516Y0119618D01*
X0022598Y0119488D01*
X0022675Y0119356D01*
X0022750Y0119222D01*
X0022821Y0119086D01*
X0022888Y0118948D01*
X0022952Y0118808D01*
X0023012Y0118667D01*
X0023068Y0118525D01*
X0023121Y0118381D01*
X0023170Y0118235D01*
X0023215Y0118089D01*
X0023256Y0117941D01*
X0023293Y0117793D01*
X0023327Y0117643D01*
X0023357Y0117492D01*
X0023382Y0117341D01*
X0023404Y0117190D01*
X0023422Y0117037D01*
X0023436Y0116885D01*
X0023446Y0116732D01*
X0023452Y0116578D01*
X0023454Y0116425D01*
X0023452Y0116272D01*
X0023446Y0116118D01*
X0023436Y0115965D01*
X0023422Y0115813D01*
X0023404Y0115660D01*
X0023382Y0115509D01*
X0023357Y0115358D01*
X0023327Y0115207D01*
X0023293Y0115057D01*
X0023256Y0114909D01*
X0023215Y0114761D01*
X0023170Y0114615D01*
X0023121Y0114469D01*
X0023068Y0114325D01*
X0023012Y0114183D01*
X0022952Y0114042D01*
X0022888Y0113902D01*
X0022821Y0113764D01*
X0022750Y0113628D01*
X0022675Y0113494D01*
X0022598Y0113362D01*
X0022516Y0113232D01*
X0022432Y0113104D01*
X0022344Y0112978D01*
X0022253Y0112855D01*
X0022159Y0112734D01*
X0022061Y0112616D01*
X0021961Y0112500D01*
X0021857Y0112387D01*
X0021751Y0112276D01*
X0021642Y0112168D01*
X0021530Y0112063D01*
X0021416Y0111962D01*
X0021298Y0111863D01*
X0021179Y0111767D01*
X0021057Y0111674D01*
X0020932Y0111585D01*
X0020805Y0111498D01*
X0020676Y0111416D01*
X0020545Y0111336D01*
X0020412Y0111260D01*
X0020277Y0111187D01*
X0020140Y0111118D01*
X0020001Y0111053D01*
X0019861Y0110991D01*
X0019719Y0110933D01*
X0019576Y0110878D01*
X0019431Y0110827D01*
X0019285Y0110780D01*
X0019138Y0110737D01*
X0018990Y0110698D01*
X0018841Y0110662D01*
X0018691Y0110631D01*
X0018540Y0110603D01*
X0018389Y0110579D01*
X0018236Y0110559D01*
X0018084Y0110543D01*
X0017931Y0110531D01*
X0017778Y0110523D01*
X0017625Y0110519D01*
X0017471Y0110519D01*
X0017318Y0110523D01*
X0017165Y0110531D01*
X0017012Y0110543D01*
X0016860Y0110559D01*
X0016707Y0110579D01*
X0016556Y0110603D01*
X0016405Y0110631D01*
X0016255Y0110662D01*
X0016106Y0110698D01*
X0015958Y0110737D01*
X0015811Y0110780D01*
X0015665Y0110827D01*
X0015520Y0110878D01*
X0015377Y0110933D01*
X0015235Y0110991D01*
X0015095Y0111053D01*
X0014956Y0111118D01*
X0014819Y0111187D01*
X0014684Y0111260D01*
X0014551Y0111336D01*
X0014420Y0111416D01*
X0014291Y0111498D01*
X0014164Y0111585D01*
X0014039Y0111674D01*
X0013917Y0111767D01*
X0013798Y0111863D01*
X0013680Y0111962D01*
X0013566Y0112063D01*
X0013454Y0112168D01*
X0013345Y0112276D01*
X0013239Y0112387D01*
X0013135Y0112500D01*
X0013035Y0112616D01*
X0012937Y0112734D01*
X0012843Y0112855D01*
X0012752Y0112978D01*
X0012664Y0113104D01*
X0012580Y0113232D01*
X0012498Y0113362D01*
X0012421Y0113494D01*
X0012346Y0113628D01*
X0012275Y0113764D01*
X0012208Y0113902D01*
X0012144Y0114042D01*
X0012084Y0114183D01*
X0012028Y0114325D01*
X0011975Y0114469D01*
X0011926Y0114615D01*
X0011881Y0114761D01*
X0011840Y0114909D01*
X0011803Y0115057D01*
X0011769Y0115207D01*
X0011739Y0115358D01*
X0011714Y0115509D01*
X0011692Y0115660D01*
X0011674Y0115813D01*
X0011660Y0115965D01*
X0011650Y0116118D01*
X0011644Y0116272D01*
X0011642Y0116425D01*
X0304949Y0116425D02*
X0304951Y0116578D01*
X0304957Y0116732D01*
X0304967Y0116885D01*
X0304981Y0117037D01*
X0304999Y0117190D01*
X0305021Y0117341D01*
X0305046Y0117492D01*
X0305076Y0117643D01*
X0305110Y0117793D01*
X0305147Y0117941D01*
X0305188Y0118089D01*
X0305233Y0118235D01*
X0305282Y0118381D01*
X0305335Y0118525D01*
X0305391Y0118667D01*
X0305451Y0118808D01*
X0305515Y0118948D01*
X0305582Y0119086D01*
X0305653Y0119222D01*
X0305728Y0119356D01*
X0305805Y0119488D01*
X0305887Y0119618D01*
X0305971Y0119746D01*
X0306059Y0119872D01*
X0306150Y0119995D01*
X0306244Y0120116D01*
X0306342Y0120234D01*
X0306442Y0120350D01*
X0306546Y0120463D01*
X0306652Y0120574D01*
X0306761Y0120682D01*
X0306873Y0120787D01*
X0306987Y0120888D01*
X0307105Y0120987D01*
X0307224Y0121083D01*
X0307346Y0121176D01*
X0307471Y0121265D01*
X0307598Y0121352D01*
X0307727Y0121434D01*
X0307858Y0121514D01*
X0307991Y0121590D01*
X0308126Y0121663D01*
X0308263Y0121732D01*
X0308402Y0121797D01*
X0308542Y0121859D01*
X0308684Y0121917D01*
X0308827Y0121972D01*
X0308972Y0122023D01*
X0309118Y0122070D01*
X0309265Y0122113D01*
X0309413Y0122152D01*
X0309562Y0122188D01*
X0309712Y0122219D01*
X0309863Y0122247D01*
X0310014Y0122271D01*
X0310167Y0122291D01*
X0310319Y0122307D01*
X0310472Y0122319D01*
X0310625Y0122327D01*
X0310778Y0122331D01*
X0310932Y0122331D01*
X0311085Y0122327D01*
X0311238Y0122319D01*
X0311391Y0122307D01*
X0311543Y0122291D01*
X0311696Y0122271D01*
X0311847Y0122247D01*
X0311998Y0122219D01*
X0312148Y0122188D01*
X0312297Y0122152D01*
X0312445Y0122113D01*
X0312592Y0122070D01*
X0312738Y0122023D01*
X0312883Y0121972D01*
X0313026Y0121917D01*
X0313168Y0121859D01*
X0313308Y0121797D01*
X0313447Y0121732D01*
X0313584Y0121663D01*
X0313719Y0121590D01*
X0313852Y0121514D01*
X0313983Y0121434D01*
X0314112Y0121352D01*
X0314239Y0121265D01*
X0314364Y0121176D01*
X0314486Y0121083D01*
X0314605Y0120987D01*
X0314723Y0120888D01*
X0314837Y0120787D01*
X0314949Y0120682D01*
X0315058Y0120574D01*
X0315164Y0120463D01*
X0315268Y0120350D01*
X0315368Y0120234D01*
X0315466Y0120116D01*
X0315560Y0119995D01*
X0315651Y0119872D01*
X0315739Y0119746D01*
X0315823Y0119618D01*
X0315905Y0119488D01*
X0315982Y0119356D01*
X0316057Y0119222D01*
X0316128Y0119086D01*
X0316195Y0118948D01*
X0316259Y0118808D01*
X0316319Y0118667D01*
X0316375Y0118525D01*
X0316428Y0118381D01*
X0316477Y0118235D01*
X0316522Y0118089D01*
X0316563Y0117941D01*
X0316600Y0117793D01*
X0316634Y0117643D01*
X0316664Y0117492D01*
X0316689Y0117341D01*
X0316711Y0117190D01*
X0316729Y0117037D01*
X0316743Y0116885D01*
X0316753Y0116732D01*
X0316759Y0116578D01*
X0316761Y0116425D01*
X0316759Y0116272D01*
X0316753Y0116118D01*
X0316743Y0115965D01*
X0316729Y0115813D01*
X0316711Y0115660D01*
X0316689Y0115509D01*
X0316664Y0115358D01*
X0316634Y0115207D01*
X0316600Y0115057D01*
X0316563Y0114909D01*
X0316522Y0114761D01*
X0316477Y0114615D01*
X0316428Y0114469D01*
X0316375Y0114325D01*
X0316319Y0114183D01*
X0316259Y0114042D01*
X0316195Y0113902D01*
X0316128Y0113764D01*
X0316057Y0113628D01*
X0315982Y0113494D01*
X0315905Y0113362D01*
X0315823Y0113232D01*
X0315739Y0113104D01*
X0315651Y0112978D01*
X0315560Y0112855D01*
X0315466Y0112734D01*
X0315368Y0112616D01*
X0315268Y0112500D01*
X0315164Y0112387D01*
X0315058Y0112276D01*
X0314949Y0112168D01*
X0314837Y0112063D01*
X0314723Y0111962D01*
X0314605Y0111863D01*
X0314486Y0111767D01*
X0314364Y0111674D01*
X0314239Y0111585D01*
X0314112Y0111498D01*
X0313983Y0111416D01*
X0313852Y0111336D01*
X0313719Y0111260D01*
X0313584Y0111187D01*
X0313447Y0111118D01*
X0313308Y0111053D01*
X0313168Y0110991D01*
X0313026Y0110933D01*
X0312883Y0110878D01*
X0312738Y0110827D01*
X0312592Y0110780D01*
X0312445Y0110737D01*
X0312297Y0110698D01*
X0312148Y0110662D01*
X0311998Y0110631D01*
X0311847Y0110603D01*
X0311696Y0110579D01*
X0311543Y0110559D01*
X0311391Y0110543D01*
X0311238Y0110531D01*
X0311085Y0110523D01*
X0310932Y0110519D01*
X0310778Y0110519D01*
X0310625Y0110523D01*
X0310472Y0110531D01*
X0310319Y0110543D01*
X0310167Y0110559D01*
X0310014Y0110579D01*
X0309863Y0110603D01*
X0309712Y0110631D01*
X0309562Y0110662D01*
X0309413Y0110698D01*
X0309265Y0110737D01*
X0309118Y0110780D01*
X0308972Y0110827D01*
X0308827Y0110878D01*
X0308684Y0110933D01*
X0308542Y0110991D01*
X0308402Y0111053D01*
X0308263Y0111118D01*
X0308126Y0111187D01*
X0307991Y0111260D01*
X0307858Y0111336D01*
X0307727Y0111416D01*
X0307598Y0111498D01*
X0307471Y0111585D01*
X0307346Y0111674D01*
X0307224Y0111767D01*
X0307105Y0111863D01*
X0306987Y0111962D01*
X0306873Y0112063D01*
X0306761Y0112168D01*
X0306652Y0112276D01*
X0306546Y0112387D01*
X0306442Y0112500D01*
X0306342Y0112616D01*
X0306244Y0112734D01*
X0306150Y0112855D01*
X0306059Y0112978D01*
X0305971Y0113104D01*
X0305887Y0113232D01*
X0305805Y0113362D01*
X0305728Y0113494D01*
X0305653Y0113628D01*
X0305582Y0113764D01*
X0305515Y0113902D01*
X0305451Y0114042D01*
X0305391Y0114183D01*
X0305335Y0114325D01*
X0305282Y0114469D01*
X0305233Y0114615D01*
X0305188Y0114761D01*
X0305147Y0114909D01*
X0305110Y0115057D01*
X0305076Y0115207D01*
X0305046Y0115358D01*
X0305021Y0115509D01*
X0304999Y0115660D01*
X0304981Y0115813D01*
X0304967Y0115965D01*
X0304957Y0116118D01*
X0304951Y0116272D01*
X0304949Y0116425D01*
X0304949Y0018000D02*
X0304951Y0018153D01*
X0304957Y0018307D01*
X0304967Y0018460D01*
X0304981Y0018612D01*
X0304999Y0018765D01*
X0305021Y0018916D01*
X0305046Y0019067D01*
X0305076Y0019218D01*
X0305110Y0019368D01*
X0305147Y0019516D01*
X0305188Y0019664D01*
X0305233Y0019810D01*
X0305282Y0019956D01*
X0305335Y0020100D01*
X0305391Y0020242D01*
X0305451Y0020383D01*
X0305515Y0020523D01*
X0305582Y0020661D01*
X0305653Y0020797D01*
X0305728Y0020931D01*
X0305805Y0021063D01*
X0305887Y0021193D01*
X0305971Y0021321D01*
X0306059Y0021447D01*
X0306150Y0021570D01*
X0306244Y0021691D01*
X0306342Y0021809D01*
X0306442Y0021925D01*
X0306546Y0022038D01*
X0306652Y0022149D01*
X0306761Y0022257D01*
X0306873Y0022362D01*
X0306987Y0022463D01*
X0307105Y0022562D01*
X0307224Y0022658D01*
X0307346Y0022751D01*
X0307471Y0022840D01*
X0307598Y0022927D01*
X0307727Y0023009D01*
X0307858Y0023089D01*
X0307991Y0023165D01*
X0308126Y0023238D01*
X0308263Y0023307D01*
X0308402Y0023372D01*
X0308542Y0023434D01*
X0308684Y0023492D01*
X0308827Y0023547D01*
X0308972Y0023598D01*
X0309118Y0023645D01*
X0309265Y0023688D01*
X0309413Y0023727D01*
X0309562Y0023763D01*
X0309712Y0023794D01*
X0309863Y0023822D01*
X0310014Y0023846D01*
X0310167Y0023866D01*
X0310319Y0023882D01*
X0310472Y0023894D01*
X0310625Y0023902D01*
X0310778Y0023906D01*
X0310932Y0023906D01*
X0311085Y0023902D01*
X0311238Y0023894D01*
X0311391Y0023882D01*
X0311543Y0023866D01*
X0311696Y0023846D01*
X0311847Y0023822D01*
X0311998Y0023794D01*
X0312148Y0023763D01*
X0312297Y0023727D01*
X0312445Y0023688D01*
X0312592Y0023645D01*
X0312738Y0023598D01*
X0312883Y0023547D01*
X0313026Y0023492D01*
X0313168Y0023434D01*
X0313308Y0023372D01*
X0313447Y0023307D01*
X0313584Y0023238D01*
X0313719Y0023165D01*
X0313852Y0023089D01*
X0313983Y0023009D01*
X0314112Y0022927D01*
X0314239Y0022840D01*
X0314364Y0022751D01*
X0314486Y0022658D01*
X0314605Y0022562D01*
X0314723Y0022463D01*
X0314837Y0022362D01*
X0314949Y0022257D01*
X0315058Y0022149D01*
X0315164Y0022038D01*
X0315268Y0021925D01*
X0315368Y0021809D01*
X0315466Y0021691D01*
X0315560Y0021570D01*
X0315651Y0021447D01*
X0315739Y0021321D01*
X0315823Y0021193D01*
X0315905Y0021063D01*
X0315982Y0020931D01*
X0316057Y0020797D01*
X0316128Y0020661D01*
X0316195Y0020523D01*
X0316259Y0020383D01*
X0316319Y0020242D01*
X0316375Y0020100D01*
X0316428Y0019956D01*
X0316477Y0019810D01*
X0316522Y0019664D01*
X0316563Y0019516D01*
X0316600Y0019368D01*
X0316634Y0019218D01*
X0316664Y0019067D01*
X0316689Y0018916D01*
X0316711Y0018765D01*
X0316729Y0018612D01*
X0316743Y0018460D01*
X0316753Y0018307D01*
X0316759Y0018153D01*
X0316761Y0018000D01*
X0316759Y0017847D01*
X0316753Y0017693D01*
X0316743Y0017540D01*
X0316729Y0017388D01*
X0316711Y0017235D01*
X0316689Y0017084D01*
X0316664Y0016933D01*
X0316634Y0016782D01*
X0316600Y0016632D01*
X0316563Y0016484D01*
X0316522Y0016336D01*
X0316477Y0016190D01*
X0316428Y0016044D01*
X0316375Y0015900D01*
X0316319Y0015758D01*
X0316259Y0015617D01*
X0316195Y0015477D01*
X0316128Y0015339D01*
X0316057Y0015203D01*
X0315982Y0015069D01*
X0315905Y0014937D01*
X0315823Y0014807D01*
X0315739Y0014679D01*
X0315651Y0014553D01*
X0315560Y0014430D01*
X0315466Y0014309D01*
X0315368Y0014191D01*
X0315268Y0014075D01*
X0315164Y0013962D01*
X0315058Y0013851D01*
X0314949Y0013743D01*
X0314837Y0013638D01*
X0314723Y0013537D01*
X0314605Y0013438D01*
X0314486Y0013342D01*
X0314364Y0013249D01*
X0314239Y0013160D01*
X0314112Y0013073D01*
X0313983Y0012991D01*
X0313852Y0012911D01*
X0313719Y0012835D01*
X0313584Y0012762D01*
X0313447Y0012693D01*
X0313308Y0012628D01*
X0313168Y0012566D01*
X0313026Y0012508D01*
X0312883Y0012453D01*
X0312738Y0012402D01*
X0312592Y0012355D01*
X0312445Y0012312D01*
X0312297Y0012273D01*
X0312148Y0012237D01*
X0311998Y0012206D01*
X0311847Y0012178D01*
X0311696Y0012154D01*
X0311543Y0012134D01*
X0311391Y0012118D01*
X0311238Y0012106D01*
X0311085Y0012098D01*
X0310932Y0012094D01*
X0310778Y0012094D01*
X0310625Y0012098D01*
X0310472Y0012106D01*
X0310319Y0012118D01*
X0310167Y0012134D01*
X0310014Y0012154D01*
X0309863Y0012178D01*
X0309712Y0012206D01*
X0309562Y0012237D01*
X0309413Y0012273D01*
X0309265Y0012312D01*
X0309118Y0012355D01*
X0308972Y0012402D01*
X0308827Y0012453D01*
X0308684Y0012508D01*
X0308542Y0012566D01*
X0308402Y0012628D01*
X0308263Y0012693D01*
X0308126Y0012762D01*
X0307991Y0012835D01*
X0307858Y0012911D01*
X0307727Y0012991D01*
X0307598Y0013073D01*
X0307471Y0013160D01*
X0307346Y0013249D01*
X0307224Y0013342D01*
X0307105Y0013438D01*
X0306987Y0013537D01*
X0306873Y0013638D01*
X0306761Y0013743D01*
X0306652Y0013851D01*
X0306546Y0013962D01*
X0306442Y0014075D01*
X0306342Y0014191D01*
X0306244Y0014309D01*
X0306150Y0014430D01*
X0306059Y0014553D01*
X0305971Y0014679D01*
X0305887Y0014807D01*
X0305805Y0014937D01*
X0305728Y0015069D01*
X0305653Y0015203D01*
X0305582Y0015339D01*
X0305515Y0015477D01*
X0305451Y0015617D01*
X0305391Y0015758D01*
X0305335Y0015900D01*
X0305282Y0016044D01*
X0305233Y0016190D01*
X0305188Y0016336D01*
X0305147Y0016484D01*
X0305110Y0016632D01*
X0305076Y0016782D01*
X0305046Y0016933D01*
X0305021Y0017084D01*
X0304999Y0017235D01*
X0304981Y0017388D01*
X0304967Y0017540D01*
X0304957Y0017693D01*
X0304951Y0017847D01*
X0304949Y0018000D01*
M02*
