G75*
%MOIN*%
%OFA0B0*%
%FSLAX25Y25*%
%IPPOS*%
%LPD*%
%AMOC8*
5,1,8,0,0,1.08239X$1,22.5*
%
%ADD10C,0.06000*%
%ADD11R,0.08200X0.08200*%
%ADD12OC8,0.12611*%
%ADD13C,0.07296*%
%ADD14C,0.07493*%
%ADD15C,0.06800*%
%ADD16C,0.17792*%
%ADD17C,0.16942*%
%ADD18R,0.07300X0.07300*%
%ADD19C,0.07300*%
%ADD20C,0.08200*%
%ADD21C,0.06800*%
%ADD22R,0.06737X0.06737*%
%ADD23C,0.12611*%
%ADD24C,0.08400*%
%ADD25R,0.08400X0.08400*%
D10*
X0126725Y0088771D03*
X0136725Y0088771D03*
X0146725Y0088771D03*
X0156725Y0088771D03*
X0156725Y0118771D03*
X0146725Y0118771D03*
X0136725Y0118771D03*
X0126725Y0118771D03*
D11*
X0155426Y0065404D03*
X0165269Y0065404D03*
X0175111Y0065404D03*
D12*
X0182592Y0037845D03*
X0147946Y0037845D03*
D13*
X0213729Y0053000D03*
X0213729Y0064811D03*
X0213729Y0019535D03*
D14*
X0271289Y0023891D03*
X0271289Y0037670D03*
X0271035Y0067976D03*
X0271035Y0081756D03*
X0271035Y0095535D03*
X0271035Y0109315D03*
D15*
X0239965Y0116375D02*
X0239965Y0122375D01*
X0229965Y0122375D02*
X0229965Y0116375D01*
X0229438Y0102920D02*
X0229438Y0096920D01*
X0239438Y0096920D02*
X0239438Y0102920D01*
X0063607Y0112530D02*
X0063607Y0118530D01*
X0053607Y0118530D02*
X0053607Y0112530D01*
X0043607Y0112530D02*
X0043607Y0118530D01*
X0043293Y0081898D02*
X0043293Y0075898D01*
X0033293Y0075898D02*
X0033293Y0081898D01*
D16*
X0035265Y0038472D03*
D17*
X0058887Y0049496D03*
X0044320Y0059339D03*
D18*
X0078079Y0060198D03*
X0101084Y0075993D03*
X0124735Y0076969D03*
X0199713Y0082961D03*
X0078543Y0031775D03*
D19*
X0078543Y0021775D03*
X0078079Y0050198D03*
X0091084Y0075993D03*
X0114735Y0076969D03*
X0109830Y0098912D03*
X0109830Y0108912D03*
X0189713Y0082961D03*
D20*
X0168163Y0082790D03*
X0139846Y0080440D03*
X0168163Y0102475D03*
X0139846Y0050440D03*
X0237130Y0046632D03*
X0247015Y0046632D03*
X0247015Y0016632D03*
X0237130Y0016632D03*
D21*
X0235537Y0077675D03*
X0225537Y0077675D03*
X0245537Y0077675D03*
D22*
X0125816Y0046798D03*
X0106131Y0046798D03*
X0106131Y0027113D03*
X0125816Y0027113D03*
D23*
X0017548Y0018000D03*
X0017548Y0116425D03*
X0310855Y0116425D03*
X0310855Y0018000D03*
D24*
X0202047Y0115071D03*
D25*
X0182047Y0115071D03*
M02*
