G75*
%MOIN*%
%OFA0B0*%
%FSLAX25Y25*%
%IPPOS*%
%LPD*%
%AMOC8*
5,1,8,0,0,1.08239X$1,22.5*
%
%ADD10C,0.05200*%
%ADD11R,0.07400X0.07400*%
%ADD12OC8,0.11811*%
%ADD13C,0.06496*%
%ADD14C,0.06693*%
%ADD15C,0.06000*%
%ADD16C,0.16992*%
%ADD17C,0.16142*%
%ADD18R,0.06500X0.06500*%
%ADD19C,0.06500*%
%ADD20C,0.07400*%
%ADD21C,0.06000*%
%ADD22R,0.05937X0.05937*%
%ADD23C,0.07600*%
%ADD24R,0.07600X0.07600*%
%ADD25C,0.01600*%
D10*
X0126725Y0088771D03*
X0136725Y0088771D03*
X0146725Y0088771D03*
X0156725Y0088771D03*
X0156725Y0118771D03*
X0146725Y0118771D03*
X0136725Y0118771D03*
X0126725Y0118771D03*
D11*
X0155426Y0065404D03*
X0165269Y0065404D03*
X0175111Y0065404D03*
D12*
X0182592Y0037845D03*
X0147946Y0037845D03*
D13*
X0213729Y0053000D03*
X0213729Y0064811D03*
X0213729Y0019535D03*
D14*
X0271289Y0023891D03*
X0271289Y0037670D03*
X0271035Y0067976D03*
X0271035Y0081756D03*
X0271035Y0095535D03*
X0271035Y0109315D03*
D15*
X0239965Y0116375D02*
X0239965Y0122375D01*
X0229965Y0122375D02*
X0229965Y0116375D01*
X0229438Y0102920D02*
X0229438Y0096920D01*
X0239438Y0096920D02*
X0239438Y0102920D01*
X0063607Y0112530D02*
X0063607Y0118530D01*
X0053607Y0118530D02*
X0053607Y0112530D01*
X0043607Y0112530D02*
X0043607Y0118530D01*
X0043293Y0081898D02*
X0043293Y0075898D01*
X0033293Y0075898D02*
X0033293Y0081898D01*
D16*
X0035265Y0038472D03*
D17*
X0058887Y0049496D03*
X0044320Y0059339D03*
D18*
X0078079Y0060198D03*
X0101084Y0075993D03*
X0124735Y0076969D03*
X0199713Y0082961D03*
X0078543Y0031775D03*
D19*
X0078543Y0021775D03*
X0078079Y0050198D03*
X0091084Y0075993D03*
X0114735Y0076969D03*
X0109830Y0098912D03*
X0109830Y0108912D03*
X0189713Y0082961D03*
D20*
X0168163Y0082790D03*
X0139846Y0080440D03*
X0168163Y0102475D03*
X0139846Y0050440D03*
X0237130Y0046632D03*
X0247015Y0046632D03*
X0247015Y0016632D03*
X0237130Y0016632D03*
D21*
X0235537Y0077675D03*
X0225537Y0077675D03*
X0245537Y0077675D03*
D22*
X0125816Y0046798D03*
X0106131Y0046798D03*
X0106131Y0027113D03*
X0125816Y0027113D03*
D23*
X0202047Y0115071D03*
D24*
X0182047Y0115071D03*
D25*
X0033602Y0013048D02*
X0031662Y0009020D01*
X0296871Y0009020D01*
X0295719Y0010711D01*
X0295719Y0010711D01*
X0294243Y0015496D01*
X0294243Y0020504D01*
X0295719Y0025289D01*
X0295719Y0025289D01*
X0298540Y0029427D01*
X0298540Y0029427D01*
X0298540Y0029427D01*
X0302455Y0032549D01*
X0302455Y0032549D01*
X0307117Y0034379D01*
X0307117Y0034379D01*
X0312111Y0034753D01*
X0312111Y0034753D01*
X0316993Y0033639D01*
X0316993Y0033639D01*
X0321330Y0031135D01*
X0321330Y0031135D01*
X0323772Y0028503D01*
X0323772Y0105922D01*
X0321330Y0103290D01*
X0321330Y0103290D01*
X0316993Y0100787D01*
X0312111Y0099672D01*
X0307117Y0100046D01*
X0302455Y0101876D01*
X0298540Y0104998D01*
X0298540Y0104998D01*
X0295719Y0109136D01*
X0295719Y0109136D01*
X0294243Y0113921D01*
X0294243Y0118929D01*
X0295719Y0123714D01*
X0295719Y0123714D01*
X0296871Y0125405D01*
X0243440Y0125405D01*
X0243865Y0124980D01*
X0244565Y0123290D01*
X0244565Y0115460D01*
X0243865Y0113769D01*
X0243016Y0112920D01*
X0250309Y0112920D01*
X0251191Y0112554D01*
X0251866Y0111879D01*
X0259869Y0103876D01*
X0280482Y0103876D01*
X0281364Y0103511D01*
X0282039Y0102836D01*
X0287299Y0097575D01*
X0287665Y0096693D01*
X0287665Y0058861D01*
X0287299Y0057979D01*
X0286624Y0057304D01*
X0286624Y0057304D01*
X0273689Y0044369D01*
X0273689Y0042030D01*
X0274091Y0041864D01*
X0275482Y0040472D01*
X0276235Y0038654D01*
X0276235Y0036687D01*
X0275482Y0034869D01*
X0274091Y0033477D01*
X0272273Y0032724D01*
X0270305Y0032724D01*
X0268487Y0033477D01*
X0267096Y0034869D01*
X0266342Y0036687D01*
X0266342Y0038654D01*
X0267096Y0040472D01*
X0268487Y0041864D01*
X0268889Y0042030D01*
X0268889Y0045840D01*
X0269254Y0046722D01*
X0282865Y0060333D01*
X0282865Y0095222D01*
X0279010Y0099076D01*
X0274489Y0099076D01*
X0275228Y0098337D01*
X0275981Y0096519D01*
X0275981Y0094551D01*
X0275228Y0092733D01*
X0273837Y0091342D01*
X0272019Y0090589D01*
X0270051Y0090589D01*
X0268233Y0091342D01*
X0266841Y0092733D01*
X0266088Y0094551D01*
X0266088Y0096519D01*
X0266841Y0098337D01*
X0267580Y0099076D01*
X0258398Y0099076D01*
X0257516Y0099442D01*
X0248837Y0108120D01*
X0206121Y0108120D01*
X0205239Y0108485D01*
X0203780Y0109944D01*
X0203122Y0109671D01*
X0200973Y0109671D01*
X0198989Y0110493D01*
X0197470Y0112012D01*
X0196647Y0113997D01*
X0196647Y0116145D01*
X0197470Y0118130D01*
X0198989Y0119649D01*
X0200973Y0120471D01*
X0203122Y0120471D01*
X0205106Y0119649D01*
X0206625Y0118130D01*
X0207447Y0116145D01*
X0207447Y0113997D01*
X0207175Y0113338D01*
X0207593Y0112920D01*
X0226632Y0112920D01*
X0226304Y0113248D01*
X0225860Y0113859D01*
X0225517Y0114532D01*
X0225283Y0115251D01*
X0225165Y0115997D01*
X0225165Y0119175D01*
X0229765Y0119175D01*
X0229765Y0119575D01*
X0225165Y0119575D01*
X0225165Y0122752D01*
X0225283Y0123499D01*
X0225517Y0124217D01*
X0225860Y0124890D01*
X0226233Y0125405D01*
X0031662Y0125405D01*
X0033602Y0121377D01*
X0034348Y0116425D01*
X0033602Y0111473D01*
X0033602Y0111473D01*
X0031429Y0106961D01*
X0031429Y0106961D01*
X0028023Y0103290D01*
X0028023Y0103290D01*
X0023686Y0100787D01*
X0023686Y0100787D01*
X0018803Y0099672D01*
X0018803Y0099672D01*
X0013810Y0100046D01*
X0013810Y0100046D01*
X0009148Y0101876D01*
X0009148Y0101876D01*
X0006600Y0103908D01*
X0006600Y0030517D01*
X0009148Y0032549D01*
X0009148Y0032549D01*
X0013810Y0034379D01*
X0013810Y0034379D01*
X0018803Y0034753D01*
X0018803Y0034753D01*
X0023686Y0033639D01*
X0023686Y0033639D01*
X0028023Y0031135D01*
X0028023Y0031135D01*
X0031429Y0027464D01*
X0031429Y0027464D01*
X0033602Y0022952D01*
X0033602Y0022952D01*
X0034348Y0018000D01*
X0033602Y0013048D01*
X0033602Y0013048D01*
X0033717Y0013812D02*
X0091177Y0013812D01*
X0089579Y0015410D02*
X0033958Y0015410D01*
X0034199Y0017009D02*
X0076869Y0017009D01*
X0076605Y0017095D02*
X0077360Y0016849D01*
X0078146Y0016725D01*
X0078543Y0016725D01*
X0078940Y0016725D01*
X0079726Y0016849D01*
X0080482Y0017095D01*
X0081190Y0017455D01*
X0081833Y0017923D01*
X0082395Y0018485D01*
X0082862Y0019128D01*
X0083223Y0019836D01*
X0083469Y0020592D01*
X0083593Y0021377D01*
X0083593Y0021774D01*
X0078543Y0021774D01*
X0078543Y0016725D01*
X0078543Y0021774D01*
X0078543Y0021774D01*
X0073493Y0021774D01*
X0073493Y0021377D01*
X0073617Y0020592D01*
X0073863Y0019836D01*
X0074224Y0019128D01*
X0074691Y0018485D01*
X0075253Y0017923D01*
X0075896Y0017455D01*
X0076605Y0017095D01*
X0078543Y0017009D02*
X0078543Y0017009D01*
X0078543Y0018607D02*
X0078543Y0018607D01*
X0078543Y0020206D02*
X0078543Y0020206D01*
X0078543Y0021774D02*
X0078543Y0021775D01*
X0078543Y0026825D01*
X0078146Y0026825D01*
X0077360Y0026700D01*
X0076605Y0026455D01*
X0075896Y0026094D01*
X0075253Y0025626D01*
X0074691Y0025064D01*
X0074224Y0024421D01*
X0073863Y0023713D01*
X0073617Y0022957D01*
X0073493Y0022172D01*
X0073493Y0021775D01*
X0078543Y0021775D01*
X0078543Y0021775D01*
X0078543Y0026825D01*
X0078940Y0026825D01*
X0079726Y0026700D01*
X0080482Y0026455D01*
X0081190Y0026094D01*
X0081833Y0025626D01*
X0082395Y0025064D01*
X0082862Y0024421D01*
X0083223Y0023713D01*
X0083469Y0022957D01*
X0083593Y0022172D01*
X0083593Y0021775D01*
X0078543Y0021775D01*
X0078543Y0021774D01*
X0078543Y0021804D02*
X0078543Y0021804D01*
X0078543Y0023403D02*
X0078543Y0023403D01*
X0073762Y0023403D02*
X0033385Y0023403D01*
X0033775Y0021804D02*
X0073493Y0021804D01*
X0073743Y0020206D02*
X0034016Y0020206D01*
X0034257Y0018607D02*
X0074602Y0018607D01*
X0080217Y0017009D02*
X0087980Y0017009D01*
X0086381Y0018607D02*
X0082484Y0018607D01*
X0083343Y0020206D02*
X0086014Y0020206D01*
X0086014Y0019491D02*
X0086380Y0018609D01*
X0094254Y0010735D01*
X0094929Y0010060D01*
X0095811Y0009694D01*
X0233069Y0009694D01*
X0233951Y0010060D01*
X0235473Y0011582D01*
X0236076Y0011332D01*
X0238184Y0011332D01*
X0240132Y0012139D01*
X0241623Y0013630D01*
X0241872Y0014232D01*
X0242273Y0014232D01*
X0242522Y0013630D01*
X0244013Y0012139D01*
X0245961Y0011332D01*
X0248070Y0011332D01*
X0250018Y0012139D01*
X0251508Y0013630D01*
X0252315Y0015578D01*
X0252315Y0017687D01*
X0251508Y0019634D01*
X0250018Y0021125D01*
X0248070Y0021932D01*
X0245961Y0021932D01*
X0244013Y0021125D01*
X0242522Y0019634D01*
X0242273Y0019032D01*
X0241872Y0019032D01*
X0241623Y0019634D01*
X0240132Y0021125D01*
X0238184Y0021932D01*
X0236076Y0021932D01*
X0234128Y0021125D01*
X0232637Y0019634D01*
X0231830Y0017687D01*
X0231830Y0015578D01*
X0232079Y0014976D01*
X0231598Y0014494D01*
X0097282Y0014494D01*
X0090814Y0020963D01*
X0090814Y0036194D01*
X0090449Y0037076D01*
X0089774Y0037751D01*
X0086877Y0040648D01*
X0086877Y0073475D01*
X0086972Y0073246D01*
X0088337Y0071881D01*
X0090119Y0071143D01*
X0092049Y0071143D01*
X0093831Y0071881D01*
X0095195Y0073246D01*
X0095934Y0075028D01*
X0095934Y0076958D01*
X0095195Y0078740D01*
X0093831Y0080104D01*
X0092049Y0080843D01*
X0090119Y0080843D01*
X0088337Y0080104D01*
X0086972Y0078740D01*
X0086877Y0078511D01*
X0086877Y0095249D01*
X0086512Y0096131D01*
X0078638Y0104005D01*
X0077963Y0104680D01*
X0077081Y0105046D01*
X0069815Y0105046D01*
X0066222Y0108639D01*
X0067507Y0109924D01*
X0068207Y0111615D01*
X0068207Y0119445D01*
X0067507Y0121135D01*
X0066213Y0122429D01*
X0064522Y0123130D01*
X0062692Y0123130D01*
X0061001Y0122429D01*
X0059707Y0121135D01*
X0059007Y0119445D01*
X0059007Y0111615D01*
X0059707Y0109924D01*
X0061001Y0108630D01*
X0061140Y0108572D01*
X0061140Y0107449D01*
X0061506Y0106566D01*
X0062181Y0105891D01*
X0067461Y0100611D01*
X0068343Y0100246D01*
X0075609Y0100246D01*
X0082077Y0093778D01*
X0082077Y0064962D01*
X0081992Y0065048D01*
X0076623Y0065048D01*
X0068487Y0073184D01*
X0067605Y0073550D01*
X0047299Y0073550D01*
X0047893Y0074983D01*
X0047893Y0082813D01*
X0047192Y0084504D01*
X0045898Y0085798D01*
X0044208Y0086498D01*
X0042378Y0086498D01*
X0040687Y0085798D01*
X0039393Y0084504D01*
X0038693Y0082813D01*
X0038693Y0074983D01*
X0039286Y0073550D01*
X0038227Y0073550D01*
X0037571Y0074206D01*
X0037893Y0074983D01*
X0037893Y0082813D01*
X0037192Y0084504D01*
X0035898Y0085798D01*
X0034208Y0086498D01*
X0032378Y0086498D01*
X0030687Y0085798D01*
X0029393Y0084504D01*
X0028693Y0082813D01*
X0028693Y0074983D01*
X0029393Y0073293D01*
X0030687Y0071999D01*
X0032378Y0071298D01*
X0033690Y0071298D01*
X0035198Y0069790D01*
X0035874Y0069115D01*
X0036756Y0068750D01*
X0041769Y0068750D01*
X0038842Y0067537D01*
X0036121Y0064817D01*
X0034649Y0061262D01*
X0034649Y0057415D01*
X0036121Y0053860D01*
X0038842Y0051140D01*
X0042396Y0049668D01*
X0046243Y0049668D01*
X0049216Y0050899D01*
X0049216Y0047572D01*
X0050688Y0044018D01*
X0053409Y0041298D01*
X0056963Y0039825D01*
X0060810Y0039825D01*
X0064365Y0041298D01*
X0067085Y0044018D01*
X0068557Y0047572D01*
X0068557Y0051420D01*
X0067085Y0054974D01*
X0064365Y0057695D01*
X0060810Y0059167D01*
X0056963Y0059167D01*
X0053991Y0057936D01*
X0053991Y0061262D01*
X0052518Y0064817D01*
X0049798Y0067537D01*
X0046871Y0068750D01*
X0066133Y0068750D01*
X0073229Y0061654D01*
X0073229Y0056285D01*
X0074167Y0055348D01*
X0081992Y0055348D01*
X0082077Y0055433D01*
X0082077Y0053287D01*
X0081931Y0053487D01*
X0081369Y0054050D01*
X0080726Y0054517D01*
X0080018Y0054878D01*
X0079262Y0055123D01*
X0078477Y0055248D01*
X0078079Y0055248D01*
X0077682Y0055248D01*
X0076897Y0055123D01*
X0076141Y0054878D01*
X0075432Y0054517D01*
X0074789Y0054050D01*
X0074227Y0053487D01*
X0073760Y0052844D01*
X0073399Y0052136D01*
X0073154Y0051380D01*
X0073029Y0050595D01*
X0073029Y0050198D01*
X0078079Y0050198D01*
X0078079Y0055248D01*
X0078079Y0050198D01*
X0078079Y0050198D01*
X0078079Y0050198D01*
X0073029Y0050198D01*
X0073029Y0049800D01*
X0073154Y0049015D01*
X0073399Y0048259D01*
X0073760Y0047551D01*
X0074227Y0046908D01*
X0074789Y0046346D01*
X0075432Y0045879D01*
X0076141Y0045518D01*
X0076897Y0045272D01*
X0077682Y0045148D01*
X0078079Y0045148D01*
X0078079Y0050198D01*
X0078079Y0050198D01*
X0078079Y0045148D01*
X0078477Y0045148D01*
X0079262Y0045272D01*
X0080018Y0045518D01*
X0080726Y0045879D01*
X0081369Y0046346D01*
X0081931Y0046908D01*
X0082077Y0047109D01*
X0082077Y0044585D01*
X0076508Y0039016D01*
X0076143Y0038134D01*
X0076143Y0036625D01*
X0074630Y0036625D01*
X0073693Y0035687D01*
X0073693Y0027862D01*
X0074630Y0026925D01*
X0082456Y0026925D01*
X0083393Y0027862D01*
X0083393Y0035687D01*
X0082456Y0036625D01*
X0080943Y0036625D01*
X0080943Y0036662D01*
X0082509Y0038228D01*
X0086014Y0034722D01*
X0086014Y0019491D01*
X0086014Y0021804D02*
X0083593Y0021804D01*
X0083324Y0023403D02*
X0086014Y0023403D01*
X0090814Y0023403D02*
X0101512Y0023403D01*
X0101485Y0023450D02*
X0101722Y0023040D01*
X0102057Y0022704D01*
X0102467Y0022467D01*
X0102925Y0022345D01*
X0105946Y0022345D01*
X0105946Y0026929D01*
X0101362Y0026929D01*
X0101362Y0023908D01*
X0101485Y0023450D01*
X0101362Y0025001D02*
X0090814Y0025001D01*
X0090814Y0026600D02*
X0101362Y0026600D01*
X0101362Y0027298D02*
X0105946Y0027298D01*
X0105946Y0026929D01*
X0106315Y0026929D01*
X0106315Y0027298D01*
X0105946Y0027298D01*
X0105946Y0031882D01*
X0102925Y0031882D01*
X0102467Y0031759D01*
X0102057Y0031522D01*
X0101722Y0031187D01*
X0101485Y0030777D01*
X0101362Y0030319D01*
X0101362Y0027298D01*
X0101362Y0028198D02*
X0090814Y0028198D01*
X0090814Y0029797D02*
X0101362Y0029797D01*
X0101930Y0031395D02*
X0090814Y0031395D01*
X0090814Y0032994D02*
X0129321Y0032994D01*
X0129021Y0031882D02*
X0126000Y0031882D01*
X0126000Y0027298D01*
X0125631Y0027298D01*
X0125631Y0026929D01*
X0121047Y0026929D01*
X0121047Y0023908D01*
X0121170Y0023450D01*
X0121407Y0023040D01*
X0121742Y0022704D01*
X0122152Y0022467D01*
X0122610Y0022345D01*
X0125631Y0022345D01*
X0125631Y0026929D01*
X0126000Y0026929D01*
X0126000Y0022345D01*
X0129021Y0022345D01*
X0129479Y0022467D01*
X0129889Y0022704D01*
X0130225Y0023040D01*
X0130462Y0023450D01*
X0130584Y0023908D01*
X0130584Y0026929D01*
X0126000Y0026929D01*
X0126000Y0027298D01*
X0130584Y0027298D01*
X0130584Y0029522D01*
X0138236Y0021871D01*
X0139118Y0021506D01*
X0155821Y0021506D01*
X0156703Y0021871D01*
X0157378Y0022546D01*
X0175086Y0040254D01*
X0175086Y0034736D01*
X0179483Y0030340D01*
X0185701Y0030340D01*
X0190097Y0034736D01*
X0190097Y0040954D01*
X0186634Y0044417D01*
X0187470Y0044764D01*
X0188145Y0045439D01*
X0208857Y0066151D01*
X0208805Y0065993D01*
X0208681Y0065208D01*
X0208681Y0065094D01*
X0213446Y0065094D01*
X0213446Y0064528D01*
X0208681Y0064528D01*
X0208681Y0064414D01*
X0208805Y0063629D01*
X0209051Y0062873D01*
X0209412Y0062165D01*
X0209879Y0061522D01*
X0210441Y0060961D01*
X0211083Y0060494D01*
X0211791Y0060133D01*
X0212547Y0059887D01*
X0213332Y0059763D01*
X0213446Y0059763D01*
X0213446Y0064528D01*
X0214012Y0064528D01*
X0214012Y0059763D01*
X0214126Y0059763D01*
X0214911Y0059887D01*
X0215667Y0060133D01*
X0216375Y0060494D01*
X0217018Y0060961D01*
X0217580Y0061522D01*
X0218047Y0062165D01*
X0218407Y0062873D01*
X0218653Y0063629D01*
X0218777Y0064414D01*
X0218777Y0064528D01*
X0214012Y0064528D01*
X0214012Y0065094D01*
X0213446Y0065094D01*
X0213446Y0069859D01*
X0213332Y0069859D01*
X0212547Y0069735D01*
X0212389Y0069684D01*
X0215393Y0072687D01*
X0223427Y0072687D01*
X0224309Y0073052D01*
X0224417Y0073160D01*
X0224622Y0073075D01*
X0226452Y0073075D01*
X0228143Y0073775D01*
X0229437Y0075069D01*
X0230137Y0076760D01*
X0230137Y0078590D01*
X0229437Y0080280D01*
X0228143Y0081574D01*
X0226452Y0082275D01*
X0224622Y0082275D01*
X0222932Y0081574D01*
X0221638Y0080280D01*
X0220937Y0078590D01*
X0220937Y0077487D01*
X0213921Y0077487D01*
X0213039Y0077121D01*
X0212364Y0076446D01*
X0185116Y0049198D01*
X0177759Y0049198D01*
X0176877Y0048833D01*
X0154349Y0026305D01*
X0140589Y0026305D01*
X0134121Y0032774D01*
X0134121Y0041370D01*
X0133756Y0042252D01*
X0130384Y0045624D01*
X0130384Y0050430D01*
X0129447Y0051367D01*
X0122184Y0051367D01*
X0121247Y0050430D01*
X0121247Y0043167D01*
X0122184Y0042230D01*
X0126990Y0042230D01*
X0129321Y0039899D01*
X0129321Y0031801D01*
X0129021Y0031882D01*
X0131721Y0031780D02*
X0131721Y0040893D01*
X0125816Y0046798D01*
X0130384Y0047380D02*
X0135271Y0047380D01*
X0135142Y0047558D02*
X0135651Y0046857D01*
X0136263Y0046245D01*
X0136963Y0045736D01*
X0137735Y0045343D01*
X0138558Y0045076D01*
X0139413Y0044940D01*
X0139760Y0044940D01*
X0139760Y0050355D01*
X0134346Y0050355D01*
X0134346Y0050008D01*
X0134481Y0049153D01*
X0134749Y0048329D01*
X0135142Y0047558D01*
X0134538Y0048979D02*
X0130384Y0048979D01*
X0130237Y0050577D02*
X0134346Y0050577D01*
X0134346Y0050526D02*
X0139760Y0050526D01*
X0139760Y0050355D01*
X0139932Y0050355D01*
X0139932Y0050526D01*
X0145346Y0050526D01*
X0145346Y0050873D01*
X0145211Y0051728D01*
X0144943Y0052552D01*
X0144550Y0053323D01*
X0144041Y0054023D01*
X0143429Y0054636D01*
X0142729Y0055144D01*
X0141957Y0055537D01*
X0141134Y0055805D01*
X0140279Y0055940D01*
X0139932Y0055940D01*
X0139932Y0050526D01*
X0139760Y0050526D01*
X0139760Y0055940D01*
X0139413Y0055940D01*
X0138558Y0055805D01*
X0137735Y0055537D01*
X0136963Y0055144D01*
X0136263Y0054636D01*
X0135651Y0054023D01*
X0135142Y0053323D01*
X0134749Y0052552D01*
X0134481Y0051728D01*
X0134346Y0050873D01*
X0134346Y0050526D01*
X0134627Y0052176D02*
X0086877Y0052176D01*
X0086877Y0053774D02*
X0135470Y0053774D01*
X0139760Y0053774D02*
X0139932Y0053774D01*
X0139932Y0052176D02*
X0139760Y0052176D01*
X0139760Y0050577D02*
X0139932Y0050577D01*
X0139932Y0050355D02*
X0145346Y0050355D01*
X0145346Y0050008D01*
X0145211Y0049153D01*
X0144943Y0048329D01*
X0144550Y0047558D01*
X0144041Y0046857D01*
X0143429Y0046245D01*
X0142729Y0045736D01*
X0141957Y0045343D01*
X0141134Y0045076D01*
X0140279Y0044940D01*
X0139932Y0044940D01*
X0139932Y0050355D01*
X0139932Y0048979D02*
X0139760Y0048979D01*
X0139760Y0047380D02*
X0139932Y0047380D01*
X0139932Y0045782D02*
X0139760Y0045782D01*
X0136901Y0045782D02*
X0130384Y0045782D01*
X0131825Y0044183D02*
X0143670Y0044183D01*
X0144837Y0045351D02*
X0140440Y0040954D01*
X0140440Y0034736D01*
X0144837Y0030340D01*
X0151055Y0030340D01*
X0155451Y0034736D01*
X0155451Y0040954D01*
X0151055Y0045351D01*
X0144837Y0045351D01*
X0142791Y0045782D02*
X0173825Y0045782D01*
X0172227Y0044183D02*
X0152222Y0044183D01*
X0153821Y0042585D02*
X0170628Y0042585D01*
X0169030Y0040986D02*
X0155419Y0040986D01*
X0155451Y0039388D02*
X0167431Y0039388D01*
X0165833Y0037789D02*
X0155451Y0037789D01*
X0155451Y0036191D02*
X0164234Y0036191D01*
X0162636Y0034592D02*
X0155307Y0034592D01*
X0153709Y0032994D02*
X0161037Y0032994D01*
X0159439Y0031395D02*
X0152110Y0031395D01*
X0157840Y0029797D02*
X0137098Y0029797D01*
X0135500Y0031395D02*
X0143782Y0031395D01*
X0142183Y0032994D02*
X0134121Y0032994D01*
X0131721Y0031780D02*
X0139595Y0023906D01*
X0155343Y0023906D01*
X0178236Y0046798D01*
X0186110Y0046798D01*
X0214398Y0075087D01*
X0222949Y0075087D01*
X0225537Y0077675D01*
X0230137Y0077752D02*
X0230937Y0077752D01*
X0230937Y0078590D02*
X0230937Y0076760D01*
X0231638Y0075069D01*
X0232932Y0073775D01*
X0234622Y0073075D01*
X0236452Y0073075D01*
X0238143Y0073775D01*
X0239437Y0075069D01*
X0240137Y0076760D01*
X0240137Y0077746D01*
X0240937Y0078546D01*
X0240937Y0076760D01*
X0241638Y0075069D01*
X0242932Y0073775D01*
X0244622Y0073075D01*
X0246452Y0073075D01*
X0248143Y0073775D01*
X0249437Y0075069D01*
X0250137Y0076760D01*
X0250137Y0078590D01*
X0249437Y0080280D01*
X0249157Y0080561D01*
X0266176Y0080561D01*
X0266841Y0078954D01*
X0268233Y0077562D01*
X0270051Y0076809D01*
X0272019Y0076809D01*
X0273837Y0077562D01*
X0275228Y0078954D01*
X0275981Y0080772D01*
X0275981Y0082740D01*
X0275228Y0084558D01*
X0273837Y0085949D01*
X0272019Y0086702D01*
X0270051Y0086702D01*
X0268233Y0085949D01*
X0267644Y0085361D01*
X0241480Y0085361D01*
X0240598Y0084995D01*
X0239923Y0084320D01*
X0237460Y0081857D01*
X0236452Y0082275D01*
X0234622Y0082275D01*
X0232932Y0081574D01*
X0231638Y0080280D01*
X0230937Y0078590D01*
X0231252Y0079351D02*
X0229822Y0079351D01*
X0228769Y0080949D02*
X0232306Y0080949D01*
X0235537Y0077675D02*
X0236672Y0077675D01*
X0241957Y0082961D01*
X0269830Y0082961D01*
X0271035Y0081756D01*
X0275399Y0084146D02*
X0282865Y0084146D01*
X0282865Y0082548D02*
X0275981Y0082548D01*
X0275981Y0080949D02*
X0282865Y0080949D01*
X0282865Y0079351D02*
X0275392Y0079351D01*
X0274026Y0077752D02*
X0282865Y0077752D01*
X0282865Y0076153D02*
X0249886Y0076153D01*
X0250137Y0077752D02*
X0268043Y0077752D01*
X0266677Y0079351D02*
X0249822Y0079351D01*
X0241189Y0076153D02*
X0239886Y0076153D01*
X0240143Y0077752D02*
X0240937Y0077752D01*
X0242152Y0074555D02*
X0238923Y0074555D01*
X0232152Y0074555D02*
X0228923Y0074555D01*
X0229886Y0076153D02*
X0231189Y0076153D01*
X0224078Y0072956D02*
X0269708Y0072956D01*
X0269830Y0072996D02*
X0269059Y0072746D01*
X0268337Y0072378D01*
X0267682Y0071902D01*
X0267109Y0071329D01*
X0266633Y0070674D01*
X0266265Y0069952D01*
X0266015Y0069181D01*
X0265888Y0068381D01*
X0265888Y0068259D01*
X0270752Y0068259D01*
X0270752Y0073123D01*
X0270630Y0073123D01*
X0269830Y0072996D01*
X0270752Y0072956D02*
X0271317Y0072956D01*
X0271317Y0073123D02*
X0271440Y0073123D01*
X0272240Y0072996D01*
X0273010Y0072746D01*
X0273732Y0072378D01*
X0274387Y0071902D01*
X0274960Y0071329D01*
X0275436Y0070674D01*
X0275804Y0069952D01*
X0276054Y0069181D01*
X0276181Y0068381D01*
X0276181Y0068259D01*
X0271317Y0068259D01*
X0270752Y0068259D01*
X0270752Y0067693D01*
X0271317Y0067693D01*
X0271317Y0062830D01*
X0271440Y0062830D01*
X0272240Y0062956D01*
X0273010Y0063207D01*
X0273732Y0063575D01*
X0274387Y0064051D01*
X0274960Y0064623D01*
X0275436Y0065279D01*
X0275804Y0066001D01*
X0276054Y0066771D01*
X0276181Y0067571D01*
X0276181Y0067693D01*
X0271317Y0067693D01*
X0271317Y0068259D01*
X0271317Y0073123D01*
X0272361Y0072956D02*
X0282865Y0072956D01*
X0282865Y0071358D02*
X0274931Y0071358D01*
X0275867Y0069759D02*
X0282865Y0069759D01*
X0282865Y0068161D02*
X0271317Y0068161D01*
X0270752Y0068161D02*
X0217518Y0068161D01*
X0217580Y0068100D02*
X0217018Y0068661D01*
X0216375Y0069128D01*
X0215667Y0069489D01*
X0214911Y0069735D01*
X0214126Y0069859D01*
X0214012Y0069859D01*
X0214012Y0065094D01*
X0218777Y0065094D01*
X0218777Y0065208D01*
X0218653Y0065993D01*
X0218407Y0066749D01*
X0218047Y0067457D01*
X0217580Y0068100D01*
X0218468Y0066562D02*
X0266083Y0066562D01*
X0266015Y0066771D02*
X0266265Y0066001D01*
X0266633Y0065279D01*
X0267109Y0064623D01*
X0267682Y0064051D01*
X0268337Y0063575D01*
X0269059Y0063207D01*
X0269830Y0062956D01*
X0270630Y0062830D01*
X0270752Y0062830D01*
X0270752Y0067693D01*
X0265888Y0067693D01*
X0265888Y0067571D01*
X0266015Y0066771D01*
X0266862Y0064964D02*
X0214012Y0064964D01*
X0213446Y0064964D02*
X0207670Y0064964D01*
X0202480Y0066562D02*
X0180411Y0066562D01*
X0180411Y0064964D02*
X0200882Y0064964D01*
X0199283Y0063365D02*
X0180411Y0063365D01*
X0180411Y0061767D02*
X0197685Y0061767D01*
X0196086Y0060168D02*
X0179538Y0060168D01*
X0179474Y0060104D02*
X0180411Y0061041D01*
X0180411Y0069767D01*
X0179474Y0070704D01*
X0170749Y0070704D01*
X0170190Y0070146D01*
X0169632Y0070704D01*
X0160906Y0070704D01*
X0160489Y0070287D01*
X0160232Y0070545D01*
X0159821Y0070782D01*
X0159363Y0070904D01*
X0155611Y0070904D01*
X0155611Y0065589D01*
X0155242Y0065589D01*
X0155242Y0070904D01*
X0151489Y0070904D01*
X0151032Y0070782D01*
X0150621Y0070545D01*
X0150286Y0070209D01*
X0150049Y0069799D01*
X0149926Y0069341D01*
X0149926Y0065588D01*
X0155242Y0065588D01*
X0155242Y0065220D01*
X0149926Y0065220D01*
X0149926Y0061467D01*
X0150049Y0061009D01*
X0150286Y0060599D01*
X0150621Y0060264D01*
X0151032Y0060027D01*
X0151489Y0059904D01*
X0155242Y0059904D01*
X0155242Y0065220D01*
X0155611Y0065220D01*
X0155611Y0059904D01*
X0159363Y0059904D01*
X0159821Y0060027D01*
X0160232Y0060264D01*
X0160489Y0060521D01*
X0160906Y0060104D01*
X0169632Y0060104D01*
X0170190Y0060663D01*
X0170749Y0060104D01*
X0179474Y0060104D01*
X0170684Y0060168D02*
X0169696Y0060168D01*
X0160842Y0060168D02*
X0160066Y0060168D01*
X0155611Y0060168D02*
X0155242Y0060168D01*
X0155242Y0061767D02*
X0155611Y0061767D01*
X0155611Y0063365D02*
X0155242Y0063365D01*
X0149926Y0063365D02*
X0086877Y0063365D01*
X0086877Y0061767D02*
X0149926Y0061767D01*
X0150786Y0060168D02*
X0086877Y0060168D01*
X0086877Y0058570D02*
X0194488Y0058570D01*
X0192889Y0056971D02*
X0086877Y0056971D01*
X0086877Y0055373D02*
X0137412Y0055373D01*
X0139760Y0055373D02*
X0139932Y0055373D01*
X0142280Y0055373D02*
X0191291Y0055373D01*
X0189692Y0053774D02*
X0144222Y0053774D01*
X0145065Y0052176D02*
X0188094Y0052176D01*
X0186495Y0050577D02*
X0145346Y0050577D01*
X0145154Y0048979D02*
X0177229Y0048979D01*
X0175424Y0047380D02*
X0144421Y0047380D01*
X0142071Y0042585D02*
X0133423Y0042585D01*
X0134121Y0040986D02*
X0140473Y0040986D01*
X0140440Y0039388D02*
X0134121Y0039388D01*
X0134121Y0037789D02*
X0140440Y0037789D01*
X0140440Y0036191D02*
X0134121Y0036191D01*
X0134121Y0034592D02*
X0140585Y0034592D01*
X0129321Y0034592D02*
X0090814Y0034592D01*
X0090814Y0036191D02*
X0129321Y0036191D01*
X0129321Y0037789D02*
X0089736Y0037789D01*
X0088137Y0039388D02*
X0129321Y0039388D01*
X0128234Y0040986D02*
X0086877Y0040986D01*
X0086877Y0042585D02*
X0102145Y0042585D01*
X0102499Y0042230D02*
X0101562Y0043167D01*
X0101562Y0050430D01*
X0102499Y0051367D01*
X0109762Y0051367D01*
X0110699Y0050430D01*
X0110699Y0043167D01*
X0109762Y0042230D01*
X0102499Y0042230D01*
X0101562Y0044183D02*
X0086877Y0044183D01*
X0086877Y0045782D02*
X0101562Y0045782D01*
X0101562Y0047380D02*
X0086877Y0047380D01*
X0086877Y0048979D02*
X0101562Y0048979D01*
X0101710Y0050577D02*
X0086877Y0050577D01*
X0082077Y0053774D02*
X0081644Y0053774D01*
X0078079Y0053774D02*
X0078079Y0053774D01*
X0078079Y0052176D02*
X0078079Y0052176D01*
X0078079Y0050577D02*
X0078079Y0050577D01*
X0078079Y0048979D02*
X0078079Y0048979D01*
X0078079Y0047380D02*
X0078079Y0047380D01*
X0078079Y0045782D02*
X0078079Y0045782D01*
X0075622Y0045782D02*
X0067816Y0045782D01*
X0068478Y0047380D02*
X0073884Y0047380D01*
X0073165Y0048979D02*
X0068557Y0048979D01*
X0068557Y0050577D02*
X0073029Y0050577D01*
X0073419Y0052176D02*
X0068244Y0052176D01*
X0067582Y0053774D02*
X0074514Y0053774D01*
X0074141Y0055373D02*
X0066686Y0055373D01*
X0065088Y0056971D02*
X0073229Y0056971D01*
X0073229Y0058570D02*
X0062252Y0058570D01*
X0055522Y0058570D02*
X0053991Y0058570D01*
X0053991Y0060168D02*
X0073229Y0060168D01*
X0073116Y0061767D02*
X0053782Y0061767D01*
X0053119Y0063365D02*
X0071517Y0063365D01*
X0069919Y0064964D02*
X0052371Y0064964D01*
X0050773Y0066562D02*
X0068320Y0066562D01*
X0066722Y0068161D02*
X0048292Y0068161D01*
X0040348Y0068161D02*
X0006600Y0068161D01*
X0006600Y0069759D02*
X0035229Y0069759D01*
X0037233Y0071150D02*
X0067127Y0071150D01*
X0078079Y0060198D01*
X0082017Y0055373D02*
X0082077Y0055373D01*
X0082076Y0064964D02*
X0082077Y0064964D01*
X0082077Y0066562D02*
X0075109Y0066562D01*
X0073510Y0068161D02*
X0082077Y0068161D01*
X0082077Y0069759D02*
X0071912Y0069759D01*
X0070313Y0071358D02*
X0082077Y0071358D01*
X0082077Y0072956D02*
X0068715Y0072956D01*
X0082077Y0074555D02*
X0047715Y0074555D01*
X0047893Y0076153D02*
X0082077Y0076153D01*
X0082077Y0077752D02*
X0047893Y0077752D01*
X0047893Y0079351D02*
X0082077Y0079351D01*
X0082077Y0080949D02*
X0047893Y0080949D01*
X0047893Y0082548D02*
X0082077Y0082548D01*
X0082077Y0084146D02*
X0047341Y0084146D01*
X0045952Y0085745D02*
X0082077Y0085745D01*
X0082077Y0087343D02*
X0006600Y0087343D01*
X0006600Y0085745D02*
X0030633Y0085745D01*
X0035952Y0085745D02*
X0040633Y0085745D01*
X0039245Y0084146D02*
X0037341Y0084146D01*
X0037893Y0082548D02*
X0038693Y0082548D01*
X0038693Y0080949D02*
X0037893Y0080949D01*
X0037893Y0079351D02*
X0038693Y0079351D01*
X0038693Y0077752D02*
X0037893Y0077752D01*
X0037893Y0076153D02*
X0038693Y0076153D01*
X0038870Y0074555D02*
X0037715Y0074555D01*
X0037233Y0071150D02*
X0033293Y0075090D01*
X0033293Y0078898D01*
X0028693Y0079351D02*
X0006600Y0079351D01*
X0006600Y0080949D02*
X0028693Y0080949D01*
X0028693Y0082548D02*
X0006600Y0082548D01*
X0006600Y0084146D02*
X0029245Y0084146D01*
X0028693Y0077752D02*
X0006600Y0077752D01*
X0006600Y0076153D02*
X0028693Y0076153D01*
X0028870Y0074555D02*
X0006600Y0074555D01*
X0006600Y0072956D02*
X0029729Y0072956D01*
X0032234Y0071358D02*
X0006600Y0071358D01*
X0006600Y0066562D02*
X0037867Y0066562D01*
X0036268Y0064964D02*
X0006600Y0064964D01*
X0006600Y0063365D02*
X0035520Y0063365D01*
X0034858Y0061767D02*
X0006600Y0061767D01*
X0006600Y0060168D02*
X0034649Y0060168D01*
X0034649Y0058570D02*
X0006600Y0058570D01*
X0006600Y0056971D02*
X0034833Y0056971D01*
X0035495Y0055373D02*
X0006600Y0055373D01*
X0006600Y0053774D02*
X0036207Y0053774D01*
X0037806Y0052176D02*
X0006600Y0052176D01*
X0006600Y0050577D02*
X0040200Y0050577D01*
X0039211Y0048000D02*
X0038119Y0048382D01*
X0036992Y0048639D01*
X0036065Y0048743D01*
X0036065Y0039272D01*
X0045536Y0039272D01*
X0045431Y0040200D01*
X0045174Y0041327D01*
X0044792Y0042419D01*
X0044290Y0043461D01*
X0043675Y0044440D01*
X0042954Y0045344D01*
X0042136Y0046162D01*
X0041232Y0046883D01*
X0040253Y0047498D01*
X0039211Y0048000D01*
X0040440Y0047380D02*
X0049295Y0047380D01*
X0049216Y0048979D02*
X0006600Y0048979D01*
X0006600Y0047380D02*
X0030089Y0047380D01*
X0030276Y0047498D02*
X0029297Y0046883D01*
X0028393Y0046162D01*
X0027575Y0045344D01*
X0026854Y0044440D01*
X0026239Y0043461D01*
X0025737Y0042419D01*
X0025355Y0041327D01*
X0025098Y0040200D01*
X0024993Y0039272D01*
X0034465Y0039272D01*
X0034465Y0037672D01*
X0036065Y0037672D01*
X0036065Y0039272D01*
X0034465Y0039272D01*
X0034465Y0048743D01*
X0033537Y0048639D01*
X0032410Y0048382D01*
X0031318Y0048000D01*
X0030276Y0047498D01*
X0028013Y0045782D02*
X0006600Y0045782D01*
X0006600Y0044183D02*
X0026693Y0044183D01*
X0025817Y0042585D02*
X0006600Y0042585D01*
X0006600Y0040986D02*
X0025277Y0040986D01*
X0025006Y0039388D02*
X0006600Y0039388D01*
X0006600Y0037789D02*
X0034465Y0037789D01*
X0034465Y0037672D02*
X0024993Y0037672D01*
X0025098Y0036745D01*
X0025355Y0035618D01*
X0025737Y0034526D01*
X0026239Y0033484D01*
X0026854Y0032505D01*
X0027575Y0031601D01*
X0028393Y0030783D01*
X0029297Y0030062D01*
X0030276Y0029447D01*
X0031318Y0028945D01*
X0032410Y0028563D01*
X0033537Y0028306D01*
X0034465Y0028201D01*
X0034465Y0037672D01*
X0034465Y0036191D02*
X0036065Y0036191D01*
X0036065Y0037672D02*
X0036065Y0028201D01*
X0036992Y0028306D01*
X0038119Y0028563D01*
X0039211Y0028945D01*
X0040253Y0029447D01*
X0041232Y0030062D01*
X0042136Y0030783D01*
X0042954Y0031601D01*
X0043675Y0032505D01*
X0044290Y0033484D01*
X0044792Y0034526D01*
X0045174Y0035618D01*
X0045431Y0036745D01*
X0045536Y0037672D01*
X0036065Y0037672D01*
X0036065Y0037789D02*
X0076143Y0037789D01*
X0076880Y0039388D02*
X0045523Y0039388D01*
X0045252Y0040986D02*
X0054160Y0040986D01*
X0052121Y0042585D02*
X0044712Y0042585D01*
X0043836Y0044183D02*
X0050620Y0044183D01*
X0049957Y0045782D02*
X0042516Y0045782D01*
X0036065Y0045782D02*
X0034465Y0045782D01*
X0034465Y0047380D02*
X0036065Y0047380D01*
X0036065Y0044183D02*
X0034465Y0044183D01*
X0034465Y0042585D02*
X0036065Y0042585D01*
X0036065Y0040986D02*
X0034465Y0040986D01*
X0034465Y0039388D02*
X0036065Y0039388D01*
X0036065Y0034592D02*
X0034465Y0034592D01*
X0034465Y0032994D02*
X0036065Y0032994D01*
X0036065Y0031395D02*
X0034465Y0031395D01*
X0034465Y0029797D02*
X0036065Y0029797D01*
X0030747Y0028198D02*
X0073693Y0028198D01*
X0073693Y0029797D02*
X0040809Y0029797D01*
X0042748Y0031395D02*
X0073693Y0031395D01*
X0073693Y0032994D02*
X0043982Y0032994D01*
X0044815Y0034592D02*
X0073693Y0034592D01*
X0074196Y0036191D02*
X0045305Y0036191D01*
X0029720Y0029797D02*
X0029264Y0029797D01*
X0027781Y0031395D02*
X0027572Y0031395D01*
X0026547Y0032994D02*
X0024803Y0032994D01*
X0025714Y0034592D02*
X0019508Y0034592D01*
X0016657Y0034592D02*
X0006600Y0034592D01*
X0006600Y0036191D02*
X0025225Y0036191D01*
X0010281Y0032994D02*
X0006600Y0032994D01*
X0006600Y0031395D02*
X0007701Y0031395D01*
X0031845Y0026600D02*
X0077051Y0026600D01*
X0078543Y0026600D02*
X0078543Y0026600D01*
X0080035Y0026600D02*
X0086014Y0026600D01*
X0086014Y0028198D02*
X0083393Y0028198D01*
X0083393Y0029797D02*
X0086014Y0029797D01*
X0086014Y0031395D02*
X0083393Y0031395D01*
X0083393Y0032994D02*
X0086014Y0032994D01*
X0086014Y0034592D02*
X0083393Y0034592D01*
X0082890Y0036191D02*
X0084546Y0036191D01*
X0082947Y0037789D02*
X0082070Y0037789D01*
X0084477Y0039654D02*
X0088414Y0035717D01*
X0088414Y0019969D01*
X0096288Y0012094D01*
X0232592Y0012094D01*
X0237130Y0016632D01*
X0247015Y0016632D01*
X0251934Y0018607D02*
X0294243Y0018607D01*
X0294243Y0017009D02*
X0252315Y0017009D01*
X0252246Y0015410D02*
X0294269Y0015410D01*
X0294762Y0013812D02*
X0251584Y0013812D01*
X0250091Y0012213D02*
X0295255Y0012213D01*
X0295784Y0010615D02*
X0234506Y0010615D01*
X0240206Y0012213D02*
X0243939Y0012213D01*
X0242447Y0013812D02*
X0241698Y0013812D01*
X0231899Y0015410D02*
X0216438Y0015410D01*
X0216475Y0015425D02*
X0217839Y0016789D01*
X0218577Y0018571D01*
X0218577Y0020500D01*
X0217839Y0022282D01*
X0216475Y0023645D01*
X0214693Y0024383D01*
X0212765Y0024383D01*
X0210983Y0023645D01*
X0209619Y0022282D01*
X0208881Y0020500D01*
X0208881Y0018571D01*
X0209619Y0016789D01*
X0210983Y0015425D01*
X0212765Y0014687D01*
X0214693Y0014687D01*
X0216475Y0015425D01*
X0217930Y0017009D02*
X0231830Y0017009D01*
X0232211Y0018607D02*
X0218577Y0018607D01*
X0218577Y0020206D02*
X0233208Y0020206D01*
X0235766Y0021804D02*
X0218037Y0021804D01*
X0216718Y0023403D02*
X0266156Y0023403D01*
X0266142Y0023486D02*
X0266269Y0022686D01*
X0266520Y0021915D01*
X0266887Y0021194D01*
X0267363Y0020538D01*
X0267936Y0019965D01*
X0268592Y0019489D01*
X0269313Y0019122D01*
X0270084Y0018871D01*
X0270884Y0018744D01*
X0271006Y0018744D01*
X0271006Y0023608D01*
X0271572Y0023608D01*
X0271572Y0024174D01*
X0276435Y0024174D01*
X0276435Y0024296D01*
X0276309Y0025096D01*
X0276058Y0025866D01*
X0275691Y0026588D01*
X0275214Y0027244D01*
X0274642Y0027816D01*
X0273986Y0028293D01*
X0273264Y0028660D01*
X0272494Y0028911D01*
X0271694Y0029037D01*
X0271572Y0029037D01*
X0271572Y0024174D01*
X0271006Y0024174D01*
X0271006Y0029037D01*
X0270884Y0029037D01*
X0270084Y0028911D01*
X0269313Y0028660D01*
X0268592Y0028293D01*
X0267936Y0027816D01*
X0267363Y0027244D01*
X0266887Y0026588D01*
X0266520Y0025866D01*
X0266269Y0025096D01*
X0266142Y0024296D01*
X0266142Y0024174D01*
X0271006Y0024174D01*
X0271006Y0023608D01*
X0266142Y0023608D01*
X0266142Y0023486D01*
X0266254Y0025001D02*
X0159833Y0025001D01*
X0161432Y0026600D02*
X0266896Y0026600D01*
X0268462Y0028198D02*
X0163030Y0028198D01*
X0164629Y0029797D02*
X0299004Y0029797D01*
X0297702Y0028198D02*
X0274116Y0028198D01*
X0275682Y0026600D02*
X0296612Y0026600D01*
X0295630Y0025001D02*
X0276324Y0025001D01*
X0276435Y0023608D02*
X0271572Y0023608D01*
X0271572Y0018744D01*
X0271694Y0018744D01*
X0272494Y0018871D01*
X0273264Y0019122D01*
X0273986Y0019489D01*
X0274642Y0019965D01*
X0275214Y0020538D01*
X0275691Y0021194D01*
X0276058Y0021915D01*
X0276309Y0022686D01*
X0276435Y0023486D01*
X0276435Y0023608D01*
X0276422Y0023403D02*
X0295137Y0023403D01*
X0294644Y0021804D02*
X0276002Y0021804D01*
X0274882Y0020206D02*
X0294243Y0020206D01*
X0271572Y0020206D02*
X0271006Y0020206D01*
X0271006Y0021804D02*
X0271572Y0021804D01*
X0271572Y0023403D02*
X0271006Y0023403D01*
X0271006Y0025001D02*
X0271572Y0025001D01*
X0271572Y0026600D02*
X0271006Y0026600D01*
X0271006Y0028198D02*
X0271572Y0028198D01*
X0272924Y0032994D02*
X0303588Y0032994D01*
X0301008Y0031395D02*
X0186756Y0031395D01*
X0188355Y0032994D02*
X0269654Y0032994D01*
X0267372Y0034592D02*
X0189953Y0034592D01*
X0190097Y0036191D02*
X0266548Y0036191D01*
X0266342Y0037789D02*
X0190097Y0037789D01*
X0190097Y0039388D02*
X0266646Y0039388D01*
X0267609Y0040986D02*
X0190065Y0040986D01*
X0188466Y0042585D02*
X0233682Y0042585D01*
X0234128Y0042139D02*
X0236076Y0041332D01*
X0238184Y0041332D01*
X0240132Y0042139D01*
X0241623Y0043630D01*
X0242073Y0044716D01*
X0242522Y0043630D01*
X0244013Y0042139D01*
X0245961Y0041332D01*
X0248070Y0041332D01*
X0250018Y0042139D01*
X0251508Y0043630D01*
X0252315Y0045578D01*
X0252315Y0047687D01*
X0251508Y0049634D01*
X0250018Y0051125D01*
X0248070Y0051932D01*
X0245961Y0051932D01*
X0244013Y0051125D01*
X0242522Y0049634D01*
X0242073Y0048549D01*
X0241623Y0049634D01*
X0240132Y0051125D01*
X0238184Y0051932D01*
X0236076Y0051932D01*
X0234128Y0051125D01*
X0232637Y0049634D01*
X0231830Y0047687D01*
X0231830Y0045578D01*
X0232637Y0043630D01*
X0234128Y0042139D01*
X0232408Y0044183D02*
X0186868Y0044183D01*
X0188488Y0045782D02*
X0231830Y0045782D01*
X0231830Y0047380D02*
X0190086Y0047380D01*
X0191685Y0048979D02*
X0210894Y0048979D01*
X0210983Y0048890D02*
X0212765Y0048152D01*
X0214693Y0048152D01*
X0216475Y0048890D01*
X0217839Y0050254D01*
X0218577Y0052036D01*
X0218577Y0053964D01*
X0217839Y0055746D01*
X0216475Y0057110D01*
X0214693Y0057848D01*
X0212765Y0057848D01*
X0210983Y0057110D01*
X0209619Y0055746D01*
X0208881Y0053964D01*
X0208881Y0052036D01*
X0209619Y0050254D01*
X0210983Y0048890D01*
X0209485Y0050577D02*
X0193283Y0050577D01*
X0194882Y0052176D02*
X0208881Y0052176D01*
X0208881Y0053774D02*
X0196480Y0053774D01*
X0198079Y0055373D02*
X0209465Y0055373D01*
X0210844Y0056971D02*
X0199677Y0056971D01*
X0201276Y0058570D02*
X0281102Y0058570D01*
X0282700Y0060168D02*
X0215737Y0060168D01*
X0214012Y0060168D02*
X0213446Y0060168D01*
X0213446Y0061767D02*
X0214012Y0061767D01*
X0214012Y0063365D02*
X0213446Y0063365D01*
X0209701Y0061767D02*
X0204473Y0061767D01*
X0206071Y0063365D02*
X0208891Y0063365D01*
X0211722Y0060168D02*
X0202874Y0060168D01*
X0216614Y0056971D02*
X0279503Y0056971D01*
X0277905Y0055373D02*
X0217994Y0055373D01*
X0218577Y0053774D02*
X0276306Y0053774D01*
X0274708Y0052176D02*
X0218577Y0052176D01*
X0217973Y0050577D02*
X0233579Y0050577D01*
X0232365Y0048979D02*
X0216564Y0048979D01*
X0240680Y0050577D02*
X0243465Y0050577D01*
X0242251Y0048979D02*
X0241895Y0048979D01*
X0250566Y0050577D02*
X0273109Y0050577D01*
X0271511Y0048979D02*
X0251780Y0048979D01*
X0252315Y0047380D02*
X0269912Y0047380D01*
X0268889Y0045782D02*
X0252315Y0045782D01*
X0251738Y0044183D02*
X0268889Y0044183D01*
X0271289Y0045363D02*
X0285265Y0059339D01*
X0285265Y0096216D01*
X0280004Y0101476D01*
X0258875Y0101476D01*
X0249831Y0110520D01*
X0206599Y0110520D01*
X0202047Y0115071D01*
X0207447Y0114518D02*
X0225524Y0114518D01*
X0225165Y0116116D02*
X0207447Y0116116D01*
X0206797Y0117715D02*
X0225165Y0117715D01*
X0229765Y0119313D02*
X0205442Y0119313D01*
X0198653Y0119313D02*
X0187447Y0119313D01*
X0187447Y0119534D02*
X0186510Y0120471D01*
X0177585Y0120471D01*
X0176647Y0119534D01*
X0176647Y0110608D01*
X0177585Y0109671D01*
X0186510Y0109671D01*
X0187447Y0110608D01*
X0187447Y0119534D01*
X0187447Y0117715D02*
X0197298Y0117715D01*
X0196647Y0116116D02*
X0187447Y0116116D01*
X0187447Y0114518D02*
X0196647Y0114518D01*
X0197094Y0112919D02*
X0187447Y0112919D01*
X0187447Y0111321D02*
X0198161Y0111321D01*
X0200849Y0109722D02*
X0186562Y0109722D01*
X0177533Y0109722D02*
X0114680Y0109722D01*
X0114680Y0109877D02*
X0113942Y0111660D01*
X0112577Y0113024D01*
X0110795Y0113762D01*
X0108865Y0113762D01*
X0107083Y0113024D01*
X0105719Y0111660D01*
X0104980Y0109877D01*
X0104980Y0107948D01*
X0105719Y0106165D01*
X0107083Y0104801D01*
X0108865Y0104062D01*
X0110795Y0104062D01*
X0112577Y0104801D01*
X0113942Y0106165D01*
X0114680Y0107948D01*
X0114680Y0109877D01*
X0114082Y0111321D02*
X0176647Y0111321D01*
X0176647Y0112919D02*
X0112682Y0112919D01*
X0106978Y0112919D02*
X0068207Y0112919D01*
X0068085Y0111321D02*
X0105578Y0111321D01*
X0104980Y0109722D02*
X0067305Y0109722D01*
X0066737Y0108124D02*
X0104980Y0108124D01*
X0105569Y0106525D02*
X0068335Y0106525D01*
X0068821Y0102646D02*
X0063540Y0107926D01*
X0063540Y0115463D01*
X0063607Y0115530D01*
X0068207Y0116116D02*
X0123440Y0116116D01*
X0123164Y0116392D02*
X0124345Y0115210D01*
X0125889Y0114571D01*
X0127560Y0114571D01*
X0129104Y0115210D01*
X0130285Y0116392D01*
X0130925Y0117936D01*
X0130925Y0119606D01*
X0130285Y0121150D01*
X0129104Y0122332D01*
X0127560Y0122971D01*
X0125889Y0122971D01*
X0124345Y0122332D01*
X0123164Y0121150D01*
X0122525Y0119606D01*
X0122525Y0117936D01*
X0123164Y0116392D01*
X0122616Y0117715D02*
X0068207Y0117715D01*
X0068207Y0119313D02*
X0122525Y0119313D01*
X0123065Y0120912D02*
X0067599Y0120912D01*
X0066018Y0122510D02*
X0124777Y0122510D01*
X0128672Y0122510D02*
X0134777Y0122510D01*
X0134345Y0122332D02*
X0133164Y0121150D01*
X0132525Y0119606D01*
X0132525Y0117936D01*
X0133164Y0116392D01*
X0134345Y0115210D01*
X0135889Y0114571D01*
X0137560Y0114571D01*
X0139104Y0115210D01*
X0140285Y0116392D01*
X0140925Y0117936D01*
X0140925Y0119606D01*
X0140285Y0121150D01*
X0139104Y0122332D01*
X0137560Y0122971D01*
X0135889Y0122971D01*
X0134345Y0122332D01*
X0133065Y0120912D02*
X0130384Y0120912D01*
X0130925Y0119313D02*
X0132525Y0119313D01*
X0132616Y0117715D02*
X0130833Y0117715D01*
X0130009Y0116116D02*
X0133440Y0116116D01*
X0140009Y0116116D02*
X0143440Y0116116D01*
X0143164Y0116392D02*
X0144345Y0115210D01*
X0145889Y0114571D01*
X0147560Y0114571D01*
X0149104Y0115210D01*
X0150285Y0116392D01*
X0150925Y0117936D01*
X0150925Y0119606D01*
X0150285Y0121150D01*
X0149104Y0122332D01*
X0147560Y0122971D01*
X0145889Y0122971D01*
X0144345Y0122332D01*
X0143164Y0121150D01*
X0142525Y0119606D01*
X0142525Y0117936D01*
X0143164Y0116392D01*
X0142616Y0117715D02*
X0140833Y0117715D01*
X0140925Y0119313D02*
X0142525Y0119313D01*
X0143065Y0120912D02*
X0140384Y0120912D01*
X0138672Y0122510D02*
X0144777Y0122510D01*
X0148672Y0122510D02*
X0154777Y0122510D01*
X0154345Y0122332D02*
X0153164Y0121150D01*
X0152525Y0119606D01*
X0152525Y0117936D01*
X0153164Y0116392D01*
X0154345Y0115210D01*
X0155889Y0114571D01*
X0157560Y0114571D01*
X0159104Y0115210D01*
X0160285Y0116392D01*
X0160925Y0117936D01*
X0160925Y0119606D01*
X0160285Y0121150D01*
X0159104Y0122332D01*
X0157560Y0122971D01*
X0155889Y0122971D01*
X0154345Y0122332D01*
X0153065Y0120912D02*
X0150384Y0120912D01*
X0150925Y0119313D02*
X0152525Y0119313D01*
X0152616Y0117715D02*
X0150833Y0117715D01*
X0150009Y0116116D02*
X0153440Y0116116D01*
X0160009Y0116116D02*
X0176647Y0116116D01*
X0176647Y0114518D02*
X0068207Y0114518D01*
X0059007Y0114518D02*
X0058407Y0114518D01*
X0058407Y0115330D02*
X0053807Y0115330D01*
X0053807Y0115730D01*
X0053407Y0115730D01*
X0053407Y0123330D01*
X0053229Y0123330D01*
X0052483Y0123212D01*
X0051764Y0122978D01*
X0051091Y0122635D01*
X0050480Y0122191D01*
X0049946Y0121657D01*
X0049502Y0121046D01*
X0049159Y0120372D01*
X0048925Y0119654D01*
X0048807Y0118908D01*
X0048807Y0115730D01*
X0053407Y0115730D01*
X0053407Y0115330D01*
X0048807Y0115330D01*
X0048807Y0112152D01*
X0048925Y0111406D01*
X0049159Y0110687D01*
X0049502Y0110014D01*
X0049946Y0109403D01*
X0050480Y0108869D01*
X0051091Y0108424D01*
X0051764Y0108081D01*
X0052483Y0107848D01*
X0053229Y0107730D01*
X0053407Y0107730D01*
X0053407Y0115330D01*
X0053807Y0115330D01*
X0053807Y0107730D01*
X0053985Y0107730D01*
X0054731Y0107848D01*
X0055449Y0108081D01*
X0056123Y0108424D01*
X0056734Y0108869D01*
X0057268Y0109403D01*
X0057712Y0110014D01*
X0058055Y0110687D01*
X0058289Y0111406D01*
X0058407Y0112152D01*
X0058407Y0115330D01*
X0058407Y0115730D02*
X0058407Y0118908D01*
X0058289Y0119654D01*
X0058055Y0120372D01*
X0057712Y0121046D01*
X0057268Y0121657D01*
X0056734Y0122191D01*
X0056123Y0122635D01*
X0055449Y0122978D01*
X0054731Y0123212D01*
X0053985Y0123330D01*
X0053807Y0123330D01*
X0053807Y0115730D01*
X0058407Y0115730D01*
X0058407Y0116116D02*
X0059007Y0116116D01*
X0059007Y0117715D02*
X0058407Y0117715D01*
X0058343Y0119313D02*
X0059007Y0119313D01*
X0059615Y0120912D02*
X0057780Y0120912D01*
X0056294Y0122510D02*
X0061196Y0122510D01*
X0053807Y0122510D02*
X0053407Y0122510D01*
X0053407Y0120912D02*
X0053807Y0120912D01*
X0053807Y0119313D02*
X0053407Y0119313D01*
X0053407Y0117715D02*
X0053807Y0117715D01*
X0053807Y0116116D02*
X0053407Y0116116D01*
X0053407Y0114518D02*
X0053807Y0114518D01*
X0053807Y0112919D02*
X0053407Y0112919D01*
X0053407Y0111321D02*
X0053807Y0111321D01*
X0053807Y0109722D02*
X0053407Y0109722D01*
X0053407Y0108124D02*
X0053807Y0108124D01*
X0055532Y0108124D02*
X0061140Y0108124D01*
X0061547Y0106525D02*
X0031024Y0106525D01*
X0031989Y0108124D02*
X0042224Y0108124D01*
X0042692Y0107930D02*
X0044522Y0107930D01*
X0046213Y0108630D01*
X0047507Y0109924D01*
X0048207Y0111615D01*
X0048207Y0119445D01*
X0047507Y0121135D01*
X0046213Y0122429D01*
X0044522Y0123130D01*
X0042692Y0123130D01*
X0041001Y0122429D01*
X0039707Y0121135D01*
X0039007Y0119445D01*
X0039007Y0111615D01*
X0039707Y0109924D01*
X0041001Y0108630D01*
X0042692Y0107930D01*
X0044990Y0108124D02*
X0051681Y0108124D01*
X0049714Y0109722D02*
X0047305Y0109722D01*
X0048085Y0111321D02*
X0048953Y0111321D01*
X0048807Y0112919D02*
X0048207Y0112919D01*
X0048207Y0114518D02*
X0048807Y0114518D01*
X0048807Y0116116D02*
X0048207Y0116116D01*
X0048207Y0117715D02*
X0048807Y0117715D01*
X0048871Y0119313D02*
X0048207Y0119313D01*
X0047599Y0120912D02*
X0049433Y0120912D01*
X0050919Y0122510D02*
X0046018Y0122510D01*
X0041196Y0122510D02*
X0033056Y0122510D01*
X0033672Y0120912D02*
X0039615Y0120912D01*
X0039007Y0119313D02*
X0033913Y0119313D01*
X0034154Y0117715D02*
X0039007Y0117715D01*
X0039007Y0116116D02*
X0034301Y0116116D01*
X0034061Y0114518D02*
X0039007Y0114518D01*
X0039007Y0112919D02*
X0033820Y0112919D01*
X0033528Y0111321D02*
X0039129Y0111321D01*
X0039909Y0109722D02*
X0032758Y0109722D01*
X0029541Y0104927D02*
X0063146Y0104927D01*
X0064744Y0103328D02*
X0028058Y0103328D01*
X0025319Y0101730D02*
X0066343Y0101730D01*
X0068821Y0102646D02*
X0076603Y0102646D01*
X0084477Y0094772D01*
X0084477Y0043591D01*
X0084477Y0039654D01*
X0084477Y0043591D02*
X0078543Y0037656D01*
X0078543Y0031775D01*
X0078543Y0025001D02*
X0078543Y0025001D01*
X0074645Y0025001D02*
X0032615Y0025001D01*
X0033199Y0012213D02*
X0092776Y0012213D01*
X0094374Y0010615D02*
X0032430Y0010615D01*
X0082441Y0025001D02*
X0086014Y0025001D01*
X0090814Y0021804D02*
X0138397Y0021804D01*
X0136704Y0023403D02*
X0130434Y0023403D01*
X0126000Y0023403D02*
X0125631Y0023403D01*
X0125631Y0025001D02*
X0126000Y0025001D01*
X0126000Y0026600D02*
X0125631Y0026600D01*
X0125631Y0027298D02*
X0121047Y0027298D01*
X0121047Y0030319D01*
X0121170Y0030777D01*
X0121407Y0031187D01*
X0121742Y0031522D01*
X0122152Y0031759D01*
X0122610Y0031882D01*
X0125631Y0031882D01*
X0125631Y0027298D01*
X0125631Y0028198D02*
X0126000Y0028198D01*
X0126000Y0029797D02*
X0125631Y0029797D01*
X0125631Y0031395D02*
X0126000Y0031395D01*
X0121615Y0031395D02*
X0110331Y0031395D01*
X0110204Y0031522D02*
X0109794Y0031759D01*
X0109336Y0031882D01*
X0106315Y0031882D01*
X0106315Y0027298D01*
X0110899Y0027298D01*
X0110899Y0030319D01*
X0110777Y0030777D01*
X0110540Y0031187D01*
X0110204Y0031522D01*
X0110899Y0029797D02*
X0121047Y0029797D01*
X0121047Y0028198D02*
X0110899Y0028198D01*
X0110899Y0026929D02*
X0106315Y0026929D01*
X0106315Y0022345D01*
X0109336Y0022345D01*
X0109794Y0022467D01*
X0110204Y0022704D01*
X0110540Y0023040D01*
X0110777Y0023450D01*
X0110899Y0023908D01*
X0110899Y0026929D01*
X0110899Y0026600D02*
X0121047Y0026600D01*
X0121047Y0025001D02*
X0110899Y0025001D01*
X0106315Y0025001D02*
X0105946Y0025001D01*
X0105946Y0026600D02*
X0106315Y0026600D01*
X0106315Y0028198D02*
X0105946Y0028198D01*
X0105946Y0029797D02*
X0106315Y0029797D01*
X0106315Y0031395D02*
X0105946Y0031395D01*
X0105946Y0023403D02*
X0106315Y0023403D01*
X0110749Y0023403D02*
X0121197Y0023403D01*
X0130584Y0025001D02*
X0135106Y0025001D01*
X0133507Y0026600D02*
X0130584Y0026600D01*
X0130584Y0028198D02*
X0131909Y0028198D01*
X0138697Y0028198D02*
X0156242Y0028198D01*
X0154643Y0026600D02*
X0140295Y0026600D01*
X0156542Y0021804D02*
X0209421Y0021804D01*
X0208881Y0020206D02*
X0091571Y0020206D01*
X0093170Y0018607D02*
X0208881Y0018607D01*
X0209528Y0017009D02*
X0094768Y0017009D01*
X0096367Y0015410D02*
X0211020Y0015410D01*
X0210740Y0023403D02*
X0158234Y0023403D01*
X0166227Y0031395D02*
X0178427Y0031395D01*
X0176829Y0032994D02*
X0167826Y0032994D01*
X0169424Y0034592D02*
X0175230Y0034592D01*
X0175086Y0036191D02*
X0171023Y0036191D01*
X0172621Y0037789D02*
X0175086Y0037789D01*
X0175086Y0039388D02*
X0174220Y0039388D01*
X0217757Y0061767D02*
X0282865Y0061767D01*
X0282865Y0063365D02*
X0273322Y0063365D01*
X0271317Y0063365D02*
X0270752Y0063365D01*
X0268748Y0063365D02*
X0218567Y0063365D01*
X0214012Y0066562D02*
X0213446Y0066562D01*
X0213446Y0068161D02*
X0214012Y0068161D01*
X0214012Y0069759D02*
X0213446Y0069759D01*
X0212703Y0069759D02*
X0212465Y0069759D01*
X0214064Y0071358D02*
X0267138Y0071358D01*
X0266203Y0069759D02*
X0214755Y0069759D01*
X0208874Y0072956D02*
X0129485Y0072956D01*
X0129585Y0073056D02*
X0128648Y0072119D01*
X0120822Y0072119D01*
X0119885Y0073056D01*
X0119885Y0080882D01*
X0120822Y0081819D01*
X0128648Y0081819D01*
X0129585Y0080882D01*
X0129585Y0073056D01*
X0129585Y0074555D02*
X0210473Y0074555D01*
X0212071Y0076153D02*
X0143054Y0076153D01*
X0142848Y0075947D02*
X0144339Y0077438D01*
X0144589Y0078040D01*
X0165781Y0078040D01*
X0167109Y0077490D01*
X0169218Y0077490D01*
X0171166Y0078297D01*
X0172656Y0079788D01*
X0173463Y0081736D01*
X0173463Y0083845D01*
X0172656Y0085793D01*
X0171166Y0087283D01*
X0169218Y0088090D01*
X0167109Y0088090D01*
X0165161Y0087283D01*
X0163670Y0085793D01*
X0162863Y0083845D01*
X0162863Y0082840D01*
X0144589Y0082840D01*
X0144339Y0083443D01*
X0142848Y0084934D01*
X0140900Y0085740D01*
X0139916Y0085740D01*
X0140081Y0085905D01*
X0140488Y0086465D01*
X0140802Y0087082D01*
X0141016Y0087741D01*
X0141125Y0088425D01*
X0141125Y0088771D01*
X0141125Y0089117D01*
X0141016Y0089801D01*
X0140802Y0090460D01*
X0140488Y0091077D01*
X0140081Y0091637D01*
X0139591Y0092127D01*
X0139031Y0092534D01*
X0138414Y0092849D01*
X0137755Y0093063D01*
X0137071Y0093171D01*
X0136725Y0093171D01*
X0136725Y0088771D01*
X0141125Y0088771D01*
X0136725Y0088771D01*
X0136725Y0088771D01*
X0136724Y0088771D01*
X0132325Y0088771D01*
X0132325Y0088425D01*
X0132433Y0087741D01*
X0132647Y0087082D01*
X0132961Y0086465D01*
X0133368Y0085905D01*
X0133858Y0085415D01*
X0134418Y0085008D01*
X0135035Y0084693D01*
X0135694Y0084479D01*
X0136295Y0084384D01*
X0135353Y0083443D01*
X0134546Y0081495D01*
X0134546Y0079386D01*
X0135353Y0077438D01*
X0136844Y0075947D01*
X0138792Y0075140D01*
X0140900Y0075140D01*
X0142848Y0075947D01*
X0144469Y0077752D02*
X0166477Y0077752D01*
X0169849Y0077752D02*
X0220937Y0077752D01*
X0221252Y0079351D02*
X0204563Y0079351D01*
X0204563Y0079048D02*
X0203626Y0078111D01*
X0195801Y0078111D01*
X0194863Y0079048D01*
X0194863Y0086873D01*
X0195801Y0087811D01*
X0203626Y0087811D01*
X0204563Y0086873D01*
X0204563Y0079048D01*
X0204563Y0080949D02*
X0222306Y0080949D01*
X0238150Y0082548D02*
X0204563Y0082548D01*
X0204563Y0084146D02*
X0239749Y0084146D01*
X0240353Y0092320D02*
X0242044Y0093021D01*
X0243338Y0094315D01*
X0244038Y0096005D01*
X0244038Y0103835D01*
X0243338Y0105526D01*
X0242044Y0106820D01*
X0240353Y0107520D01*
X0238523Y0107520D01*
X0236832Y0106820D01*
X0235538Y0105526D01*
X0234838Y0103835D01*
X0234838Y0096005D01*
X0235538Y0094315D01*
X0236832Y0093021D01*
X0238523Y0092320D01*
X0240353Y0092320D01*
X0242760Y0093737D02*
X0266425Y0093737D01*
X0267436Y0092139D02*
X0229931Y0092139D01*
X0229816Y0092120D02*
X0230562Y0092239D01*
X0231280Y0092472D01*
X0231954Y0092815D01*
X0232565Y0093259D01*
X0233099Y0093793D01*
X0233543Y0094405D01*
X0233886Y0095078D01*
X0234120Y0095796D01*
X0234238Y0096543D01*
X0234238Y0099720D01*
X0229638Y0099720D01*
X0229638Y0092120D01*
X0229816Y0092120D01*
X0229638Y0092139D02*
X0229238Y0092139D01*
X0229238Y0092120D02*
X0229238Y0099720D01*
X0229638Y0099720D01*
X0229638Y0100120D01*
X0234238Y0100120D01*
X0234238Y0103298D01*
X0234120Y0104044D01*
X0233886Y0104763D01*
X0233543Y0105436D01*
X0233099Y0106047D01*
X0232565Y0106582D01*
X0231954Y0107026D01*
X0231280Y0107369D01*
X0230562Y0107602D01*
X0229816Y0107720D01*
X0229638Y0107720D01*
X0229638Y0100120D01*
X0229238Y0100120D01*
X0229238Y0099720D01*
X0224638Y0099720D01*
X0224638Y0096543D01*
X0224756Y0095796D01*
X0224990Y0095078D01*
X0225333Y0094405D01*
X0225777Y0093793D01*
X0226311Y0093259D01*
X0226922Y0092815D01*
X0227595Y0092472D01*
X0228314Y0092239D01*
X0229060Y0092120D01*
X0229238Y0092120D01*
X0228945Y0092139D02*
X0159575Y0092139D01*
X0159591Y0092127D02*
X0159031Y0092534D01*
X0158414Y0092849D01*
X0157755Y0093063D01*
X0157071Y0093171D01*
X0156725Y0093171D01*
X0156725Y0088771D01*
X0161125Y0088771D01*
X0161125Y0089117D01*
X0161016Y0089801D01*
X0160802Y0090460D01*
X0160488Y0091077D01*
X0160081Y0091637D01*
X0159591Y0092127D01*
X0160761Y0090540D02*
X0282865Y0090540D01*
X0282865Y0088942D02*
X0161125Y0088942D01*
X0161125Y0088771D02*
X0156725Y0088771D01*
X0156725Y0088771D01*
X0156724Y0088771D01*
X0152325Y0088771D01*
X0152325Y0088425D01*
X0152433Y0087741D01*
X0152647Y0087082D01*
X0152961Y0086465D01*
X0153368Y0085905D01*
X0153858Y0085415D01*
X0154418Y0085008D01*
X0155035Y0084693D01*
X0155694Y0084479D01*
X0156378Y0084371D01*
X0156724Y0084371D01*
X0156724Y0088771D01*
X0156724Y0088771D01*
X0152325Y0088771D01*
X0152325Y0089117D01*
X0152433Y0089801D01*
X0152647Y0090460D01*
X0152961Y0091077D01*
X0153368Y0091637D01*
X0153858Y0092127D01*
X0154418Y0092534D01*
X0155035Y0092849D01*
X0155694Y0093063D01*
X0156378Y0093171D01*
X0156724Y0093171D01*
X0156724Y0088771D01*
X0156725Y0088771D01*
X0156725Y0084371D01*
X0157071Y0084371D01*
X0157755Y0084479D01*
X0158414Y0084693D01*
X0159031Y0085008D01*
X0159591Y0085415D01*
X0160081Y0085905D01*
X0160488Y0086465D01*
X0160802Y0087082D01*
X0161016Y0087741D01*
X0161125Y0088425D01*
X0161125Y0088771D01*
X0160887Y0087343D02*
X0165305Y0087343D01*
X0163650Y0085745D02*
X0159921Y0085745D01*
X0156725Y0085745D02*
X0156724Y0085745D01*
X0156724Y0087343D02*
X0156725Y0087343D01*
X0156724Y0088942D02*
X0156725Y0088942D01*
X0156724Y0090540D02*
X0156725Y0090540D01*
X0156724Y0092139D02*
X0156725Y0092139D01*
X0153874Y0092139D02*
X0149297Y0092139D01*
X0149104Y0092332D02*
X0147560Y0092971D01*
X0145889Y0092971D01*
X0144345Y0092332D01*
X0143164Y0091150D01*
X0142525Y0089606D01*
X0142525Y0087936D01*
X0143164Y0086392D01*
X0144345Y0085210D01*
X0145889Y0084571D01*
X0147560Y0084571D01*
X0149104Y0085210D01*
X0150285Y0086392D01*
X0150925Y0087936D01*
X0150925Y0089606D01*
X0150285Y0091150D01*
X0149104Y0092332D01*
X0150538Y0090540D02*
X0152688Y0090540D01*
X0152325Y0088942D02*
X0150925Y0088942D01*
X0150679Y0087343D02*
X0152562Y0087343D01*
X0153528Y0085745D02*
X0149638Y0085745D01*
X0143811Y0085745D02*
X0139921Y0085745D01*
X0140887Y0087343D02*
X0142770Y0087343D01*
X0142525Y0088942D02*
X0141125Y0088942D01*
X0140761Y0090540D02*
X0142911Y0090540D01*
X0144152Y0092139D02*
X0139575Y0092139D01*
X0136725Y0092139D02*
X0136724Y0092139D01*
X0136724Y0093171D02*
X0136378Y0093171D01*
X0135694Y0093063D01*
X0135035Y0092849D01*
X0134418Y0092534D01*
X0133858Y0092127D01*
X0133368Y0091637D01*
X0132961Y0091077D01*
X0132647Y0090460D01*
X0132433Y0089801D01*
X0132325Y0089117D01*
X0132325Y0088771D01*
X0136724Y0088771D01*
X0136724Y0088771D01*
X0136724Y0093171D01*
X0133874Y0092139D02*
X0129297Y0092139D01*
X0129104Y0092332D02*
X0127560Y0092971D01*
X0125889Y0092971D01*
X0124345Y0092332D01*
X0123164Y0091150D01*
X0122525Y0089606D01*
X0122525Y0087936D01*
X0123164Y0086392D01*
X0124345Y0085210D01*
X0125889Y0084571D01*
X0127560Y0084571D01*
X0129104Y0085210D01*
X0130285Y0086392D01*
X0130925Y0087936D01*
X0130925Y0089606D01*
X0130285Y0091150D01*
X0129104Y0092332D01*
X0130538Y0090540D02*
X0132688Y0090540D01*
X0132325Y0088942D02*
X0130925Y0088942D01*
X0130679Y0087343D02*
X0132562Y0087343D01*
X0133528Y0085745D02*
X0129638Y0085745D01*
X0123811Y0085745D02*
X0086877Y0085745D01*
X0086877Y0087343D02*
X0122770Y0087343D01*
X0122525Y0088942D02*
X0086877Y0088942D01*
X0086877Y0090540D02*
X0122911Y0090540D01*
X0124152Y0092139D02*
X0086877Y0092139D01*
X0086877Y0093737D02*
X0225833Y0093737D01*
X0229238Y0093737D02*
X0229638Y0093737D01*
X0233043Y0093737D02*
X0236116Y0093737D01*
X0235115Y0095336D02*
X0233970Y0095336D01*
X0234238Y0096934D02*
X0234838Y0096934D01*
X0234838Y0098533D02*
X0234238Y0098533D01*
X0234238Y0100131D02*
X0234838Y0100131D01*
X0234838Y0101730D02*
X0234238Y0101730D01*
X0234233Y0103328D02*
X0234838Y0103328D01*
X0235290Y0104927D02*
X0233803Y0104927D01*
X0232621Y0106525D02*
X0236537Y0106525D01*
X0242338Y0106525D02*
X0250432Y0106525D01*
X0252030Y0104927D02*
X0243586Y0104927D01*
X0244038Y0103328D02*
X0253629Y0103328D01*
X0255227Y0101730D02*
X0244038Y0101730D01*
X0244038Y0100131D02*
X0256826Y0100131D01*
X0266260Y0096934D02*
X0244038Y0096934D01*
X0244038Y0098533D02*
X0267037Y0098533D01*
X0266088Y0095336D02*
X0243761Y0095336D01*
X0229638Y0095336D02*
X0229238Y0095336D01*
X0229238Y0096934D02*
X0229638Y0096934D01*
X0229638Y0098533D02*
X0229238Y0098533D01*
X0229238Y0100120D02*
X0224638Y0100120D01*
X0224638Y0103298D01*
X0224756Y0104044D01*
X0224990Y0104763D01*
X0225333Y0105436D01*
X0225777Y0106047D01*
X0226311Y0106582D01*
X0226922Y0107026D01*
X0227595Y0107369D01*
X0228314Y0107602D01*
X0229060Y0107720D01*
X0229238Y0107720D01*
X0229238Y0100120D01*
X0229238Y0100131D02*
X0229638Y0100131D01*
X0229638Y0101730D02*
X0229238Y0101730D01*
X0229238Y0103328D02*
X0229638Y0103328D01*
X0229638Y0104927D02*
X0229238Y0104927D01*
X0229238Y0106525D02*
X0229638Y0106525D01*
X0226255Y0106525D02*
X0171609Y0106525D01*
X0171166Y0106968D02*
X0169218Y0107775D01*
X0167109Y0107775D01*
X0165161Y0106968D01*
X0163670Y0105478D01*
X0162863Y0103530D01*
X0162863Y0101421D01*
X0163670Y0099473D01*
X0165161Y0097982D01*
X0167109Y0097175D01*
X0169218Y0097175D01*
X0171166Y0097982D01*
X0172656Y0099473D01*
X0173463Y0101421D01*
X0173463Y0103530D01*
X0172656Y0105478D01*
X0171166Y0106968D01*
X0172885Y0104927D02*
X0225073Y0104927D01*
X0224643Y0103328D02*
X0173463Y0103328D01*
X0173463Y0101730D02*
X0224638Y0101730D01*
X0224638Y0100131D02*
X0172929Y0100131D01*
X0171716Y0098533D02*
X0224638Y0098533D01*
X0224638Y0096934D02*
X0114490Y0096934D01*
X0114510Y0096974D02*
X0114756Y0097730D01*
X0114880Y0098515D01*
X0114880Y0098912D01*
X0109830Y0098912D01*
X0109830Y0098912D01*
X0109830Y0093862D01*
X0109433Y0093862D01*
X0108648Y0093987D01*
X0107892Y0094232D01*
X0107183Y0094593D01*
X0106540Y0095061D01*
X0105978Y0095623D01*
X0105511Y0096266D01*
X0105150Y0096974D01*
X0104905Y0097730D01*
X0104780Y0098515D01*
X0104780Y0098912D01*
X0109830Y0098912D01*
X0109830Y0098913D01*
X0109830Y0103962D01*
X0109433Y0103962D01*
X0108648Y0103838D01*
X0107892Y0103592D01*
X0107183Y0103232D01*
X0106540Y0102764D01*
X0105978Y0102202D01*
X0105511Y0101559D01*
X0105150Y0100851D01*
X0104905Y0100095D01*
X0104780Y0099310D01*
X0104780Y0098913D01*
X0109830Y0098913D01*
X0109830Y0098913D01*
X0109830Y0103962D01*
X0110228Y0103962D01*
X0111013Y0103838D01*
X0111769Y0103592D01*
X0112477Y0103232D01*
X0113120Y0102764D01*
X0113682Y0102202D01*
X0114149Y0101559D01*
X0114510Y0100851D01*
X0114756Y0100095D01*
X0114880Y0099310D01*
X0114880Y0098913D01*
X0109830Y0098913D01*
X0109830Y0098912D01*
X0109830Y0093862D01*
X0110228Y0093862D01*
X0111013Y0093987D01*
X0111769Y0094232D01*
X0112477Y0094593D01*
X0113120Y0095061D01*
X0113682Y0095623D01*
X0114149Y0096266D01*
X0114510Y0096974D01*
X0114880Y0098533D02*
X0164611Y0098533D01*
X0163398Y0100131D02*
X0114744Y0100131D01*
X0114026Y0101730D02*
X0162863Y0101730D01*
X0162863Y0103328D02*
X0112287Y0103328D01*
X0109830Y0103328D02*
X0109830Y0103328D01*
X0109830Y0101730D02*
X0109830Y0101730D01*
X0109830Y0100131D02*
X0109830Y0100131D01*
X0109830Y0098533D02*
X0109830Y0098533D01*
X0109830Y0096934D02*
X0109830Y0096934D01*
X0109830Y0095336D02*
X0109830Y0095336D01*
X0106265Y0095336D02*
X0086841Y0095336D01*
X0085709Y0096934D02*
X0105170Y0096934D01*
X0104780Y0098533D02*
X0084110Y0098533D01*
X0082512Y0100131D02*
X0104916Y0100131D01*
X0105635Y0101730D02*
X0080913Y0101730D01*
X0079315Y0103328D02*
X0107373Y0103328D01*
X0106957Y0104927D02*
X0077368Y0104927D01*
X0075724Y0100131D02*
X0020814Y0100131D01*
X0013594Y0100131D02*
X0006600Y0100131D01*
X0006600Y0098533D02*
X0077322Y0098533D01*
X0078921Y0096934D02*
X0006600Y0096934D01*
X0006600Y0095336D02*
X0080519Y0095336D01*
X0082077Y0093737D02*
X0006600Y0093737D01*
X0006600Y0092139D02*
X0082077Y0092139D01*
X0082077Y0090540D02*
X0006600Y0090540D01*
X0006600Y0088942D02*
X0082077Y0088942D01*
X0086877Y0084146D02*
X0136056Y0084146D01*
X0134982Y0082548D02*
X0086877Y0082548D01*
X0086877Y0080949D02*
X0111621Y0080949D01*
X0111445Y0080821D02*
X0110883Y0080259D01*
X0110416Y0079616D01*
X0110055Y0078908D01*
X0109809Y0078152D01*
X0109685Y0077366D01*
X0109685Y0076969D01*
X0114735Y0076969D01*
X0119785Y0076969D01*
X0119785Y0077366D01*
X0119661Y0078152D01*
X0119415Y0078908D01*
X0119054Y0079616D01*
X0118587Y0080259D01*
X0118025Y0080821D01*
X0117382Y0081288D01*
X0116673Y0081649D01*
X0115917Y0081895D01*
X0115132Y0082019D01*
X0114735Y0082019D01*
X0114735Y0076969D01*
X0114735Y0076969D01*
X0119785Y0076969D01*
X0119785Y0076572D01*
X0119661Y0075786D01*
X0119415Y0075030D01*
X0119054Y0074322D01*
X0118587Y0073679D01*
X0118025Y0073117D01*
X0117382Y0072650D01*
X0116673Y0072289D01*
X0115917Y0072043D01*
X0115132Y0071919D01*
X0114735Y0071919D01*
X0114735Y0076969D01*
X0114735Y0076969D01*
X0114735Y0076969D01*
X0114735Y0082019D01*
X0114337Y0082019D01*
X0113552Y0081895D01*
X0112796Y0081649D01*
X0112088Y0081288D01*
X0111445Y0080821D01*
X0110281Y0079351D02*
X0105934Y0079351D01*
X0105934Y0079906D02*
X0104997Y0080843D01*
X0097171Y0080843D01*
X0096234Y0079906D01*
X0096234Y0072080D01*
X0097171Y0071143D01*
X0104997Y0071143D01*
X0105934Y0072080D01*
X0105934Y0079906D01*
X0105934Y0077752D02*
X0109746Y0077752D01*
X0109685Y0076969D02*
X0109685Y0076572D01*
X0109809Y0075786D01*
X0110055Y0075030D01*
X0110416Y0074322D01*
X0110883Y0073679D01*
X0111445Y0073117D01*
X0112088Y0072650D01*
X0112796Y0072289D01*
X0113552Y0072043D01*
X0114337Y0071919D01*
X0114735Y0071919D01*
X0114735Y0076969D01*
X0114735Y0076969D01*
X0109685Y0076969D01*
X0109751Y0076153D02*
X0105934Y0076153D01*
X0105934Y0074555D02*
X0110297Y0074555D01*
X0114735Y0074555D02*
X0114735Y0074555D01*
X0114735Y0076153D02*
X0114735Y0076153D01*
X0114735Y0077752D02*
X0114735Y0077752D01*
X0114735Y0079351D02*
X0114735Y0079351D01*
X0114735Y0080949D02*
X0114735Y0080949D01*
X0117848Y0080949D02*
X0119952Y0080949D01*
X0119885Y0079351D02*
X0119189Y0079351D01*
X0119724Y0077752D02*
X0119885Y0077752D01*
X0119885Y0076153D02*
X0119719Y0076153D01*
X0119885Y0074555D02*
X0119173Y0074555D01*
X0119985Y0072956D02*
X0117804Y0072956D01*
X0114735Y0072956D02*
X0114735Y0072956D01*
X0111666Y0072956D02*
X0105934Y0072956D01*
X0105212Y0071358D02*
X0207276Y0071358D01*
X0205677Y0069759D02*
X0180411Y0069759D01*
X0180411Y0068161D02*
X0204079Y0068161D01*
X0192461Y0078849D02*
X0190678Y0078111D01*
X0188749Y0078111D01*
X0186966Y0078849D01*
X0185602Y0080213D01*
X0184863Y0081996D01*
X0184863Y0083925D01*
X0185602Y0085708D01*
X0186966Y0087072D01*
X0188749Y0087811D01*
X0190678Y0087811D01*
X0192461Y0087072D01*
X0193825Y0085708D01*
X0194563Y0083925D01*
X0194563Y0081996D01*
X0193825Y0080213D01*
X0192461Y0078849D01*
X0192962Y0079351D02*
X0194863Y0079351D01*
X0194863Y0080949D02*
X0194130Y0080949D01*
X0194563Y0082548D02*
X0194863Y0082548D01*
X0194863Y0084146D02*
X0194472Y0084146D01*
X0194863Y0085745D02*
X0193788Y0085745D01*
X0195333Y0087343D02*
X0191807Y0087343D01*
X0187620Y0087343D02*
X0171022Y0087343D01*
X0172676Y0085745D02*
X0185638Y0085745D01*
X0184955Y0084146D02*
X0173338Y0084146D01*
X0173463Y0082548D02*
X0184863Y0082548D01*
X0185297Y0080949D02*
X0173137Y0080949D01*
X0172219Y0079351D02*
X0186465Y0079351D01*
X0204563Y0085745D02*
X0268028Y0085745D01*
X0274041Y0085745D02*
X0282865Y0085745D01*
X0282865Y0087343D02*
X0204094Y0087343D01*
X0224906Y0095336D02*
X0113395Y0095336D01*
X0112703Y0104927D02*
X0163442Y0104927D01*
X0164718Y0106525D02*
X0114091Y0106525D01*
X0114680Y0108124D02*
X0206112Y0108124D01*
X0204002Y0109722D02*
X0203246Y0109722D01*
X0225165Y0120912D02*
X0160384Y0120912D01*
X0160925Y0119313D02*
X0176647Y0119313D01*
X0176647Y0117715D02*
X0160833Y0117715D01*
X0158672Y0122510D02*
X0225165Y0122510D01*
X0225482Y0124109D02*
X0032286Y0124109D01*
X0058407Y0112919D02*
X0059007Y0112919D01*
X0059129Y0111321D02*
X0058261Y0111321D01*
X0057500Y0109722D02*
X0059909Y0109722D01*
X0009521Y0101730D02*
X0006600Y0101730D01*
X0006600Y0103328D02*
X0007327Y0103328D01*
X0086877Y0079351D02*
X0087583Y0079351D01*
X0094585Y0079351D02*
X0096234Y0079351D01*
X0096234Y0077752D02*
X0095605Y0077752D01*
X0095934Y0076153D02*
X0096234Y0076153D01*
X0096234Y0074555D02*
X0095738Y0074555D01*
X0096234Y0072956D02*
X0094906Y0072956D01*
X0096956Y0071358D02*
X0092568Y0071358D01*
X0089600Y0071358D02*
X0086877Y0071358D01*
X0086877Y0072956D02*
X0087261Y0072956D01*
X0086877Y0069759D02*
X0150038Y0069759D01*
X0149926Y0068161D02*
X0086877Y0068161D01*
X0086877Y0066562D02*
X0149926Y0066562D01*
X0149926Y0064964D02*
X0086877Y0064964D01*
X0110551Y0050577D02*
X0121395Y0050577D01*
X0121247Y0048979D02*
X0110699Y0048979D01*
X0110699Y0047380D02*
X0121247Y0047380D01*
X0121247Y0045782D02*
X0110699Y0045782D01*
X0110699Y0044183D02*
X0121247Y0044183D01*
X0121830Y0042585D02*
X0110117Y0042585D01*
X0082077Y0045782D02*
X0080536Y0045782D01*
X0081676Y0044183D02*
X0067154Y0044183D01*
X0065652Y0042585D02*
X0080077Y0042585D01*
X0078479Y0040986D02*
X0063613Y0040986D01*
X0049216Y0050577D02*
X0048439Y0050577D01*
X0129585Y0076153D02*
X0136638Y0076153D01*
X0135223Y0077752D02*
X0129585Y0077752D01*
X0129585Y0079351D02*
X0134561Y0079351D01*
X0134546Y0080949D02*
X0129518Y0080949D01*
X0139846Y0080440D02*
X0165813Y0080440D01*
X0168163Y0082790D01*
X0162988Y0084146D02*
X0143636Y0084146D01*
X0136724Y0088942D02*
X0136725Y0088942D01*
X0136724Y0090540D02*
X0136725Y0090540D01*
X0155242Y0069759D02*
X0155611Y0069759D01*
X0155611Y0068161D02*
X0155242Y0068161D01*
X0155242Y0066562D02*
X0155611Y0066562D01*
X0155611Y0064964D02*
X0155242Y0064964D01*
X0240578Y0042585D02*
X0243568Y0042585D01*
X0242293Y0044183D02*
X0241852Y0044183D01*
X0250463Y0042585D02*
X0268889Y0042585D01*
X0273689Y0042585D02*
X0323772Y0042585D01*
X0323772Y0040986D02*
X0274969Y0040986D01*
X0275932Y0039388D02*
X0323772Y0039388D01*
X0323772Y0037789D02*
X0276235Y0037789D01*
X0276030Y0036191D02*
X0323772Y0036191D01*
X0323772Y0034592D02*
X0312815Y0034592D01*
X0309965Y0034592D02*
X0275206Y0034592D01*
X0271289Y0037670D02*
X0271289Y0045363D01*
X0273689Y0044183D02*
X0323772Y0044183D01*
X0323772Y0045782D02*
X0275102Y0045782D01*
X0276700Y0047380D02*
X0323772Y0047380D01*
X0323772Y0048979D02*
X0278299Y0048979D01*
X0279897Y0050577D02*
X0323772Y0050577D01*
X0323772Y0052176D02*
X0281496Y0052176D01*
X0283094Y0053774D02*
X0323772Y0053774D01*
X0323772Y0055373D02*
X0284693Y0055373D01*
X0286291Y0056971D02*
X0323772Y0056971D01*
X0323772Y0058570D02*
X0287544Y0058570D01*
X0287665Y0060168D02*
X0323772Y0060168D01*
X0323772Y0061767D02*
X0287665Y0061767D01*
X0287665Y0063365D02*
X0323772Y0063365D01*
X0323772Y0064964D02*
X0287665Y0064964D01*
X0287665Y0066562D02*
X0323772Y0066562D01*
X0323772Y0068161D02*
X0287665Y0068161D01*
X0287665Y0069759D02*
X0323772Y0069759D01*
X0323772Y0071358D02*
X0287665Y0071358D01*
X0287665Y0072956D02*
X0323772Y0072956D01*
X0323772Y0074555D02*
X0287665Y0074555D01*
X0287665Y0076153D02*
X0323772Y0076153D01*
X0323772Y0077752D02*
X0287665Y0077752D01*
X0287665Y0079351D02*
X0323772Y0079351D01*
X0323772Y0080949D02*
X0287665Y0080949D01*
X0287665Y0082548D02*
X0323772Y0082548D01*
X0323772Y0084146D02*
X0287665Y0084146D01*
X0287665Y0085745D02*
X0323772Y0085745D01*
X0323772Y0087343D02*
X0287665Y0087343D01*
X0287665Y0088942D02*
X0323772Y0088942D01*
X0323772Y0090540D02*
X0287665Y0090540D01*
X0287665Y0092139D02*
X0323772Y0092139D01*
X0323772Y0093737D02*
X0287665Y0093737D01*
X0287665Y0095336D02*
X0323772Y0095336D01*
X0323772Y0096934D02*
X0287565Y0096934D01*
X0286342Y0098533D02*
X0323772Y0098533D01*
X0323772Y0100131D02*
X0314121Y0100131D01*
X0318626Y0101730D02*
X0323772Y0101730D01*
X0323772Y0103328D02*
X0321365Y0103328D01*
X0322848Y0104927D02*
X0323772Y0104927D01*
X0306901Y0100131D02*
X0284743Y0100131D01*
X0283145Y0101730D02*
X0302828Y0101730D01*
X0300634Y0103328D02*
X0281546Y0103328D01*
X0279554Y0098533D02*
X0275033Y0098533D01*
X0275809Y0096934D02*
X0281152Y0096934D01*
X0282751Y0095336D02*
X0275981Y0095336D01*
X0275644Y0093737D02*
X0282865Y0093737D01*
X0282865Y0092139D02*
X0274633Y0092139D01*
X0272019Y0104368D02*
X0270051Y0104368D01*
X0268233Y0105121D01*
X0266841Y0106513D01*
X0266088Y0108331D01*
X0266088Y0110299D01*
X0266841Y0112117D01*
X0268233Y0113508D01*
X0270051Y0114261D01*
X0272019Y0114261D01*
X0273837Y0113508D01*
X0275228Y0112117D01*
X0275981Y0110299D01*
X0275981Y0108331D01*
X0275228Y0106513D01*
X0273837Y0105121D01*
X0272019Y0104368D01*
X0273367Y0104927D02*
X0298630Y0104927D01*
X0297499Y0106525D02*
X0275233Y0106525D01*
X0275895Y0108124D02*
X0296409Y0108124D01*
X0295538Y0109722D02*
X0275981Y0109722D01*
X0275558Y0111321D02*
X0295045Y0111321D01*
X0294552Y0112919D02*
X0274426Y0112919D01*
X0267644Y0112919D02*
X0250310Y0112919D01*
X0252425Y0111321D02*
X0266512Y0111321D01*
X0266088Y0109722D02*
X0254023Y0109722D01*
X0255622Y0108124D02*
X0266174Y0108124D01*
X0266836Y0106525D02*
X0257220Y0106525D01*
X0258819Y0104927D02*
X0268703Y0104927D01*
X0244175Y0114518D02*
X0294243Y0114518D01*
X0294243Y0116116D02*
X0244565Y0116116D01*
X0244565Y0117715D02*
X0294243Y0117715D01*
X0294361Y0119313D02*
X0244565Y0119313D01*
X0244565Y0120912D02*
X0294854Y0120912D01*
X0295347Y0122510D02*
X0244565Y0122510D01*
X0244226Y0124109D02*
X0295988Y0124109D01*
X0236490Y0125405D02*
X0236065Y0124980D01*
X0235365Y0123290D01*
X0235365Y0115460D01*
X0236065Y0113769D01*
X0236915Y0112920D01*
X0233298Y0112920D01*
X0233626Y0113248D01*
X0234070Y0113859D01*
X0234413Y0114532D01*
X0234647Y0115251D01*
X0234765Y0115997D01*
X0234765Y0119175D01*
X0230165Y0119175D01*
X0230165Y0119575D01*
X0234765Y0119575D01*
X0234765Y0122752D01*
X0234647Y0123499D01*
X0234413Y0124217D01*
X0234070Y0124890D01*
X0233697Y0125405D01*
X0236490Y0125405D01*
X0235704Y0124109D02*
X0234449Y0124109D01*
X0234765Y0122510D02*
X0235365Y0122510D01*
X0235365Y0120912D02*
X0234765Y0120912D01*
X0235365Y0119313D02*
X0230165Y0119313D01*
X0234765Y0117715D02*
X0235365Y0117715D01*
X0235365Y0116116D02*
X0234765Y0116116D01*
X0234406Y0114518D02*
X0235755Y0114518D01*
X0248923Y0074555D02*
X0282865Y0074555D01*
X0271317Y0071358D02*
X0270752Y0071358D01*
X0270752Y0069759D02*
X0271317Y0069759D01*
X0271317Y0066562D02*
X0270752Y0066562D01*
X0270752Y0064964D02*
X0271317Y0064964D01*
X0275208Y0064964D02*
X0282865Y0064964D01*
X0282865Y0066562D02*
X0275987Y0066562D01*
X0318110Y0032994D02*
X0323772Y0032994D01*
X0323772Y0031395D02*
X0320879Y0031395D01*
X0322571Y0029797D02*
X0323772Y0029797D01*
X0267696Y0020206D02*
X0250937Y0020206D01*
X0248379Y0021804D02*
X0266576Y0021804D01*
X0245652Y0021804D02*
X0238493Y0021804D01*
X0241052Y0020206D02*
X0243093Y0020206D01*
M02*
