%
M48
M72
T01C0.0276
T02C0.0320
T03C0.0354
T04C0.0394
T05C0.0400
T06C0.0433
T07C0.0787
T08C0.1063
T09C0.1181
T10C0.1299
%
T01
X7854Y2177
X7854Y3177
X7808Y5020
X7808Y6020
X9108Y7599
X10108Y7599
X11473Y7697
X12473Y7697
X10983Y9891
X10983Y10891
X18971Y8296
X19971Y8296
T02
X15672Y8877
X14672Y8877
X13672Y8877
X12672Y8877
X12672Y11877
X13672Y11877
X14672Y11877
X15672Y11877
T03
X18205Y11507
X20205Y11507
X16816Y10248
X16816Y8279
X13985Y8044
X13985Y5044
X23713Y4663
X24702Y4663
X24702Y1663
X23713Y1663
T04
X12582Y2711
X10613Y2711
X10613Y4680
X12582Y4680
X15543Y6540
X16527Y6540
X17511Y6540
T05
X22554Y7767
X23554Y7767
X24554Y7767
X23944Y9992
X22944Y9992
X22997Y11937
X23997Y11937
X6361Y11553
X5361Y11553
X4361Y11553
X4329Y7890
X3329Y7890
T06
X21373Y6481
X21373Y5300
X27103Y6798
X27103Y8176
X27103Y9554
X27103Y10931
X27129Y3767
X27129Y2389
X21373Y1954
T07
X18259Y3785
X14795Y3785
T08
X5889Y4950
X4432Y5934
T09
X1755Y1800
X1755Y11643
X31086Y11643
X31086Y1800
T10
X3526Y3847
M30
